<svg xmlns="http://www.w3.org/2000/svg" width="40" height="40" viewBox="0 0 40 40">
  <g id="about" transform="translate(-1242.302 -193.302)">
    <circle id="Ellipse_1246" data-name="Ellipse 1246" cx="20" cy="20" r="20" transform="translate(1242.302 193.302)" fill="#f5f5f5"/>
    <path id="laptop" d="M21.767,41.592a.963.963,0,0,1-.963-.963v-7.85a3.857,3.857,0,0,0-3.853-3.853H7.705a3.857,3.857,0,0,0-3.853,3.853v7.85a.963.963,0,1,1-1.926,0v-7.85A5.785,5.785,0,0,1,7.705,27h9.246a5.785,5.785,0,0,1,5.779,5.779v7.85A.963.963,0,0,1,21.767,41.592Zm2.889,4.575a2.893,2.893,0,0,0-2.889-2.889H2.889a2.889,2.889,0,1,0,0,5.779H21.767A2.893,2.893,0,0,0,24.656,46.166ZM21.767,45.2a.963.963,0,1,1,0,1.926H2.889a.963.963,0,1,1,0-1.926ZM15.555,33.4a3.034,3.034,0,1,0-3.034,3.034A3.037,3.037,0,0,0,15.555,33.4Zm-1.926,0A1.108,1.108,0,1,1,12.521,32.3,1.109,1.109,0,0,1,13.628,33.4Zm2.077,8.156a.963.963,0,0,0,.689-1.175A3.871,3.871,0,0,0,12.646,37.5h-.539a3.871,3.871,0,0,0-3.748,2.887.963.963,0,1,0,1.864.486,1.944,1.944,0,0,1,1.885-1.447h.539a1.944,1.944,0,0,1,1.885,1.447.962.962,0,0,0,1.175.689Z" transform="translate(1249.166 175.554)" fill="#1e3f6c"/>
  </g>
</svg>
