<svg xmlns="http://www.w3.org/2000/svg" width="20.748" height="20.748" viewBox="0 0 20.748 20.748">
  <g id="appointmen_management" transform="translate(3967.748 678.599)">
    <path id="Path_104831" data-name="Path 104831" d="M20.744,4.045h-1.7V3.363a1.363,1.363,0,1,0-2.726,0v.682H13.587V3.363a1.363,1.363,0,1,0-2.726,0v.682H8.135V3.363a1.363,1.363,0,1,0-2.726,0v.682H3.7A1.7,1.7,0,0,0,2,5.749V19.381a1.7,1.7,0,0,0,1.7,1.7h9.543a.341.341,0,0,0,0-.682H3.7a1.025,1.025,0,0,1-1.022-1.022V8.816H21.767V14.61a.341.341,0,0,0,.682,0V5.749a1.7,1.7,0,0,0-1.7-1.7ZM17,3.363a.682.682,0,0,1,1.363,0V5.408a.682.682,0,0,1-1.363,0Zm-5.453,0a.682.682,0,1,1,1.363,0V5.408a.682.682,0,1,1-1.363,0Zm-5.453,0a.682.682,0,1,1,1.363,0V5.408a.682.682,0,1,1-1.363,0ZM21.767,8.135H2.682V5.749A1.025,1.025,0,0,1,3.7,4.726h1.7v.682a1.363,1.363,0,1,0,2.726,0V4.726h2.726v.682a1.363,1.363,0,1,0,2.726,0V4.726h2.726v.682a1.363,1.363,0,1,0,2.726,0V4.726h1.7a1.025,1.025,0,0,1,1.022,1.022Z" transform="translate(-3969.598 -680.448)" fill="#fff" stroke="#fff" stroke-width="0.3"/>
    <path id="Path_104832" data-name="Path 104832" d="M24.726,27.682A.682.682,0,0,0,24.045,27H22.682a.682.682,0,0,0-.682.682V28.7a.682.682,0,0,0,.682.682h1.363a.682.682,0,0,0,.682-.682ZM22.682,28.7V27.682h1.363V28.7Z" transform="translate(-3982.781 -696.928)" fill="#fff" stroke="#fff" stroke-width="0.3"/>
    <path id="Path_104833" data-name="Path 104833" d="M12.726,27.682A.682.682,0,0,0,12.045,27H10.682a.682.682,0,0,0-.682.682V28.7a.682.682,0,0,0,.682.682h1.363a.682.682,0,0,0,.682-.682ZM10.682,28.7V27.682h1.363V28.7Z" transform="translate(-3974.871 -696.928)" fill="#fff" stroke="#fff" stroke-width="0.3"/>
    <path id="Path_104834" data-name="Path 104834" d="M48.045,29.386a.682.682,0,0,0,.682-.682V27.682A.682.682,0,0,0,48.045,27H46.682a.682.682,0,0,0-.682.682V28.7a.682.682,0,0,0,.682.682Zm-1.363-1.7h1.363V28.7H46.682Z" transform="translate(-3998.602 -696.928)" fill="#fff" stroke="#fff" stroke-width="0.3"/>
    <path id="Path_104835" data-name="Path 104835" d="M24.726,36.682A.682.682,0,0,0,24.045,36H22.682a.682.682,0,0,0-.682.682V37.7a.682.682,0,0,0,.682.682h1.363a.682.682,0,0,0,.682-.682ZM22.682,37.7V36.682h1.363V37.7Z" transform="translate(-3982.781 -702.861)" fill="#fff" stroke="#fff" stroke-width="0.3"/>
    <path id="Path_104836" data-name="Path 104836" d="M12.726,36.682A.682.682,0,0,0,12.045,36H10.682a.682.682,0,0,0-.682.682V37.7a.682.682,0,0,0,.682.682h1.363a.682.682,0,0,0,.682-.682ZM10.682,37.7V36.682h1.363V37.7Z" transform="translate(-3974.871 -702.861)" fill="#fff" stroke="#fff" stroke-width="0.3"/>
    <path id="Path_104837" data-name="Path 104837" d="M24.045,45H22.682a.682.682,0,0,0-.682.682V46.7a.682.682,0,0,0,.682.682h1.363a.682.682,0,0,0,.682-.682V45.682A.682.682,0,0,0,24.045,45Zm-1.363,1.7V45.682h1.363V46.7Z" transform="translate(-3982.781 -708.794)" fill="#fff" stroke="#fff" stroke-width="0.3"/>
    <path id="Path_104838" data-name="Path 104838" d="M34.682,29.386h1.363a.682.682,0,0,0,.682-.682V27.682A.682.682,0,0,0,36.045,27H34.682a.682.682,0,0,0-.682.682V28.7A.682.682,0,0,0,34.682,29.386Zm0-1.7h1.363V28.7H34.682Z" transform="translate(-3990.692 -696.928)" fill="#fff" stroke="#fff" stroke-width="0.3"/>
    <path id="Path_104839" data-name="Path 104839" d="M34,37.7a.682.682,0,0,0,.682.682.341.341,0,0,0,0-.682V36.682h1.363a.341.341,0,0,0,0-.682H34.682a.682.682,0,0,0-.682.682Z" transform="translate(-3990.692 -702.861)" fill="#fff" stroke="#fff" stroke-width="0.3"/>
    <path id="Path_104840" data-name="Path 104840" d="M12.045,45H10.682a.682.682,0,0,0-.682.682V46.7a.682.682,0,0,0,.682.682h1.363a.682.682,0,0,0,.682-.682V45.682A.682.682,0,0,0,12.045,45Zm-1.363,1.7V45.682h1.363V46.7Z" transform="translate(-3974.871 -708.794)" fill="#fff" stroke="#fff" stroke-width="0.3"/>
    <path id="Path_104841" data-name="Path 104841" d="M40.43,36a4.43,4.43,0,1,0,4.43,4.431A4.431,4.431,0,0,0,40.43,36Zm0,8.179a3.749,3.749,0,1,1,3.749-3.749A3.749,3.749,0,0,1,40.43,44.179Z" transform="translate(-3992.01 -702.861)" fill="#fff" stroke="#fff" stroke-width="0.3"/>
    <path id="Path_104842" data-name="Path 104842" d="M46.2,44.615l-2.651,2.651-1.2-1.205a.341.341,0,1,0-.482.482L43.3,47.989a.341.341,0,0,0,.482,0L46.677,45.1a.341.341,0,1,0-.482-.482Z" transform="translate(-3995.806 -708.474)" fill="#fff" stroke="#fff" stroke-width="0.3"/>
  </g>
</svg>
