<svg height='300px' width='300px'  fill="#fff" xmlns="http://www.w3.org/2000/svg" data-name="Layer 1" viewBox="0 0 128 128" x="0px" y="0px"><title>a</title><path d="M89.76035,32.75531a142.66562,142.66562,0,0,0-30.062,30.83315q-2.23721-2.93979-4.605-5.66192A95.71928,95.71928,0,0,0,46.85687,49.538a3.304,3.304,0,1,0-4.40448,4.926,89.11252,89.11252,0,0,1,7.67045,7.81132,108.25051,108.25051,0,0,1,6.98279,8.94907,3.30129,3.30129,0,0,0,4.59594.80927c.0876-.0614.886-.91431.8865-.91549a125.01665,125.01665,0,0,1,13.989-17.702A129.15407,129.15407,0,0,1,93.67173,38.09859a3.31095,3.31095,0,0,0-3.91138-5.34328Z"></path><circle cx="105.71451" cy="89.8705" r="8.76782" transform="translate(-16.8754 154.86263) rotate(-68.29938)"></circle><circle cx="115.20641" cy="65.9834" r="8.79235" transform="translate(11.30619 148.63368) rotate(-68.30298)"></circle><circle cx="112.49643" cy="40.4394" r="7.87649" transform="translate(33.3251 130.00889) rotate(-68.29836)"></circle><circle cx="98.25154" cy="19.07085" r="6.13056" transform="translate(44.20853 103.31108) rotate(-68.30308)"></circle><circle cx="75.68809" cy="6.78377" r="3.9157" transform="translate(41.41223 74.60612) rotate(-68.31063)"></circle><path d="M92.11736,100.81943,65.958,97.45142a1.67772,1.67772,0,0,0-1.76252,2.31048l2.8116,6.73336c-.2228.00128-.4456.00963-.668.00781A51.29371,51.29371,0,0,1,48.7625,7.05034,1.67784,1.67784,0,0,0,49.87041,5.7314a1.60622,1.60622,0,0,0-1.9742-1.775A57.73986,57.73986,0,0,0,4.00131,60.20291,59.71779,59.71779,0,0,0,8.924,83.37609a58.33966,58.33966,0,0,0,34.38771,31.6467,59.31579,59.31579,0,0,0,23.50894,2.98178q2.39525-.181,4.75253-.57385l2.78507,6.66982a1.67775,1.67775,0,0,0,2.88219.37126L93.237,103.50118A1.67788,1.67788,0,0,0,92.11736,100.81943Z"></path></svg>