<svg xmlns="http://www.w3.org/2000/svg" width="21" height="21" viewBox="0 0 21 21">
  <g id="availability" transform="translate(3968 623)">
    <g id="Group_55969" data-name="Group 55969" transform="translate(-3958.313 -618.128)">
      <g id="Group_55968" data-name="Group 55968">
        <path id="Path_104847" data-name="Path 104847" d="M240.724,126.262l-2.928-2.2v-4.473a.813.813,0,1,0-1.627,0v4.88a.812.812,0,0,0,.325.651l3.253,2.44a.813.813,0,0,0,.976-1.3Z" transform="translate(-236.169 -118.779)" fill="#fff"/>
      </g>
    </g>
    <g id="availability-2" data-name="availability" transform="translate(-3968 -623)">
      <g id="Group_55970" data-name="Group 55970">
        <path id="Path_104848" data-name="Path 104848" d="M10.5,0A10.5,10.5,0,1,0,21,10.5,10.511,10.511,0,0,0,10.5,0Zm0,19.373A8.873,8.873,0,1,1,19.373,10.5,8.884,8.884,0,0,1,10.5,19.373Z" fill="#fff"/>
      </g>
    </g>
  </g>
</svg>
