<svg xmlns="http://www.w3.org/2000/svg" width="21" height="21" viewBox="0 0 21 21">
  <path id="avatar_active" d="M21,20.074a1.843,1.843,0,0,0-1.123-1.7l-5.231-2.226v-1.3a4.88,4.88,0,0,0,1.021-2.413h1.069a1.848,1.848,0,0,0,1.846-1.846V7.942a1.848,1.848,0,0,0-1.589-1.827C16.859,2.112,14.621,0,10.5,0S4.139,2.112,4.006,6.115A1.848,1.848,0,0,0,2.417,7.942v2.646a1.848,1.848,0,0,0,1.846,1.846H5.332a4.879,4.879,0,0,0,1.021,2.413v1.3L1.122,18.377A1.843,1.843,0,0,0,0,20.075v.309A.615.615,0,0,0,.614,21h19.77A.615.615,0,0,0,21,20.384Zm-7.584-3.492a3.78,3.78,0,0,1-.847,2.426,2.746,2.746,0,0,1-2.069.76,2.749,2.749,0,0,1-2.063-.754,3.753,3.753,0,0,1-.852-2.432c0-.008,0-.017,0-.025v-.609a5.595,5.595,0,0,0,5.83,0v.609c0,.008,0,.017,0,.025Zm1.065-5.093-1.17.78a2.249,2.249,0,0,1-1.251.379H11.017a.615.615,0,1,0,0,1.23h1.041a3.475,3.475,0,0,0,1.934-.586l.236-.157a3.88,3.88,0,0,1-3.728,2.4,3.8,3.8,0,0,1-3.98-3.773V6.776c.243-1.128.594-1.844,1.018-2.074s1.035.009,1.628.239A3.823,3.823,0,0,0,10.5,5.29a3.706,3.706,0,0,0,1.329-.352c.593-.236,1.154-.459,1.569-.242.3.158.734.649,1.083,2.088Zm2.871-3.547v2.646a.616.616,0,0,1-.615.615H15.71V7.327h1.025A.616.616,0,0,1,17.351,7.942ZM6.333,2.737A5.215,5.215,0,0,1,10.5,1.23a5.215,5.215,0,0,1,4.166,1.507A5.394,5.394,0,0,1,15.76,6.1h-.189A3.717,3.717,0,0,0,13.966,3.6a3.016,3.016,0,0,0-2.593.189,3.089,3.089,0,0,1-.874.266,3.226,3.226,0,0,1-.89-.265,3.076,3.076,0,0,0-2.66-.174A3.67,3.67,0,0,0,5.416,6.1H5.238a5.393,5.393,0,0,1,1.1-3.359ZM3.648,10.588V7.942a.616.616,0,0,1,.615-.615H5.288V11.2H4.263a.616.616,0,0,1-.615-.615ZM1.6,19.509l4.82-2.051a4.562,4.562,0,0,0,1.034,2.311H1.311a.614.614,0,0,1,.293-.26Zm11.936.26a4.562,4.562,0,0,0,1.034-2.311l4.82,2.051a.615.615,0,0,1,.293.26Zm0,0" transform="translate(0.001 0)" fill="#1e3f6c"/>
</svg>
