<svg height='300px' width='300px'  fill="#1E3F6C" xmlns="http://www.w3.org/2000/svg" data-name="Layer 1" viewBox="0 0 100 100" x="0px" y="0px"><title>Artboard 23</title><path d="M95.71,53.65c0,2.85,0,5.69,0,8.54a7.51,7.51,0,0,1-3.8,6.58,13.17,13.17,0,0,1-6.33,2l-.55,0a6.46,6.46,0,0,1-6.11-4.05,12.11,12.11,0,0,1-1-4.09v-.07l.22-13.45A7.14,7.14,0,0,1,83.08,43a31.08,31.08,0,0,0-3.33-13.64C74.43,18.89,66,12.73,54.6,11.07A32.85,32.85,0,0,0,17.39,38.13,35.31,35.31,0,0,0,17,42.4c0,.21,0,.41,0,.61a6.89,6.89,0,0,1,4.58,4.76,11.44,11.44,0,0,1,.54,3.33c0,4,0,7.65,0,11.14a12,12,0,0,1-.6,3.5A7.26,7.26,0,0,1,19,69.35,18.8,18.8,0,0,0,37.7,86.58h2.45a4.85,4.85,0,0,1,4.23-2.5h9.36A4.88,4.88,0,0,1,58.63,89v5.16A4.88,4.88,0,0,1,53.74,99H44.38a4.85,4.85,0,0,1-4.23-2.5H37.7A28.72,28.72,0,0,1,9.07,69.42a10.48,10.48,0,0,1-1.47-.9,7.34,7.34,0,0,1-3.27-5.9c-.06-3.76-.06-7.72,0-11.78a7.2,7.2,0,0,1,2.86-5.67A42.37,42.37,0,0,1,18.34,15,40.1,40.1,0,0,1,41,1.95C57.61-1.22,71.6,3.56,82.62,16.15,89.68,24.21,93.11,34,92.81,45.22a7.48,7.48,0,0,1,2.89,6ZM29.05,56.23l3-2.54a18.54,18.54,0,0,1,0-7.38l-3-2.54a3.33,3.33,0,0,1-.75-4.22l1.84-3.18a3.33,3.33,0,0,1,4-1.46l3.72,1.36a18.34,18.34,0,0,1,6.39-3.69l.68-3.9a3.33,3.33,0,0,1,3.28-2.75h3.67a3.33,3.33,0,0,1,3.28,2.75l.68,3.9a18.34,18.34,0,0,1,6.39,3.69L66,34.91a3.33,3.33,0,0,1,4,1.46l1.84,3.18a3.33,3.33,0,0,1-.75,4.22l-3,2.54a18.52,18.52,0,0,1,0,7.38l3,2.54a3.33,3.33,0,0,1,.75,4.22L70,63.63a3.33,3.33,0,0,1-4,1.46l-3.72-1.36a18.33,18.33,0,0,1-6.39,3.69l-.68,3.9a3.33,3.33,0,0,1-3.28,2.75H48.24A3.33,3.33,0,0,1,45,71.32l-.68-3.9a18.33,18.33,0,0,1-6.39-3.69l-3.72,1.36a3.33,3.33,0,0,1-4-1.46l-1.84-3.18A3.33,3.33,0,0,1,29.05,56.23ZM43.13,50a7,7,0,1,0,6.95-7A6.95,6.95,0,0,0,43.13,50Z"></path></svg>