<svg xmlns="http://www.w3.org/2000/svg" width="30" height="30" viewBox="0 0 30 30">
  <g id="call_sm" transform="translate(-1430 -322)">
    <g id="Group_58520" data-name="Group 58520" transform="translate(1430 322)">
      <circle id="Ellipse_1155" data-name="Ellipse 1155" cx="15" cy="15" r="15" transform="translate(0 0)" fill="#f2f1f6"/>
    </g>
    <g id="phone_5_" data-name="phone (5)" transform="translate(1438.355 330.328)">
      <path id="Path_104998" data-name="Path 104998" d="M12.185,9.514c-.826-.706-1.664-1.134-2.48-.429l-.487.426C8.862,9.821,8.2,11.267,5.638,8.32s-1.037-3.4-.68-3.708l.49-.427c.811-.707.505-1.6-.08-2.513l-.353-.555C4.426.2,3.786-.4,2.973.309l-.44.384A4.126,4.126,0,0,0,.925,3.424c-.293,1.941.632,4.163,2.753,6.6s4.191,3.665,6.156,3.644a4.137,4.137,0,0,0,2.927-1.212l.441-.385c.811-.705.307-1.423-.519-2.131Z" transform="translate(-0.872 0)" fill="#2b78c8"/>
    </g>
  </g>
</svg>
