<svg xmlns="http://www.w3.org/2000/svg" width="62" height="62" viewBox="0 0 62 62">
  <g id="cancelled_bookings" transform="translate(-768 -192)">
    <circle id="_1" data-name="1" cx="31" cy="31" r="31" transform="translate(768 192)" fill="#f2f1f6"/>
    <g id="_118252" data-name="118252" transform="translate(775 199)">
      <g id="Group_59407" data-name="Group 59407" transform="translate(11 11)">
        <path id="Path_105279" data-name="Path 105279" d="M35.509,16.063A6.908,6.908,0,0,0,30.2,14.054V12.1a1.1,1.1,0,0,0-1.1-1.1H12.1A1.1,1.1,0,0,0,11,12.1V36.43a1.113,1.113,0,0,0,1.852.818L20.6,30.186l7.749,7.061A1.116,1.116,0,0,0,30.2,36.43V27.852a6.909,6.909,0,0,0,5.307-11.789ZM27.987,33.928l-6.644-6.054a1.105,1.105,0,0,0-1.489,0l-6.644,6.054V13.209H27.982v1.354a6.773,6.773,0,0,0-2.253,1.505,6.92,6.92,0,0,0,2.253,11.285v6.574Zm5.962-9.644a4.7,4.7,0,1,1,0-6.65,4.7,4.7,0,0,1,0,6.65Z" transform="translate(-11 -11)" fill="#2b78c8" stroke="#f2f1f6" stroke-width="0.4"/>
        <path id="Path_105280" data-name="Path 105280" d="M330.879,147.744a.824.824,0,0,0-1.17,0l-1.148,1.148-1.148-1.148a.827.827,0,0,0-1.17,1.17l1.148,1.148-1.148,1.148a.827.827,0,0,0,1.17,1.17l1.148-1.148,1.148,1.148a.827.827,0,0,0,1.17-1.17l-1.148-1.148,1.148-1.148A.824.824,0,0,0,330.879,147.744Z" transform="translate(-308.942 -140.108)" fill="#2b78c8" stroke="#f2f1f6" stroke-width="0.4"/>
      </g>
    </g>
  </g>
</svg>
