<svg xmlns="http://www.w3.org/2000/svg" width="62" height="62" viewBox="0 0 62 62">
  <g id="cancelled" transform="translate(-768 -192)">
    <circle id="_1" data-name="1" cx="31" cy="31" r="31" transform="translate(768 192)" fill="#f2f1f6"/>
    <g id="download" transform="translate(780 204)">
      <g id="Group_59606" data-name="Group 59606" transform="translate(6 6)">
        <path id="Path_105343" data-name="Path 105343" d="M29.952,8.017H28.187V7.008a1.008,1.008,0,1,0-2.017,0V8.017H12.051V7.008a1.008,1.008,0,0,0-2.017,0V8.017H8.269A2.272,2.272,0,0,0,6,10.286v2.773H32.221V10.286A2.272,2.272,0,0,0,29.952,8.017Z" transform="translate(-6 -6)" fill="#2b78c8"/>
        <path id="Path_105344" data-name="Path 105344" d="M6,38.875a2.272,2.272,0,0,0,2.269,2.269H29.952a2.272,2.272,0,0,0,2.269-2.269V24H6Zm8.363-11.137a1.008,1.008,0,1,1,1.426-1.426l3.321,3.321,3.321-3.321a1.008,1.008,0,1,1,1.426,1.426l-3.321,3.321,3.321,3.321a1.008,1.008,0,1,1-1.426,1.426L19.11,32.485l-3.321,3.321a1.008,1.008,0,1,1-1.426-1.426l3.321-3.321Z" transform="translate(-6 -14.924)" fill="#2b78c8"/>
      </g>
    </g>
  </g>
</svg>
