<svg xmlns="http://www.w3.org/2000/svg" width="40" height="40" viewBox="0 0 40 40">
  <g id="change_pass" transform="translate(-1242.302 -193.302)">
    <circle id="Ellipse_1246" data-name="Ellipse 1246" cx="20" cy="20" r="20" transform="translate(1242.302 193.302)" fill="#f5f5f5"/>
    <g id="_748218" data-name="748218" transform="translate(1249.417 200.417)">
      <g id="Group_59288" data-name="Group 59288">
        <g id="Group_59287" data-name="Group 59287">
          <path id="Path_105235" data-name="Path 105235" d="M127.537,5.909h-3.052V3.641a3.719,3.719,0,0,0-7.436,0V5.909H114V16.777h13.537Zm-8.581-2.268a1.813,1.813,0,0,1,3.623,0V5.909h-3.623ZM125.63,14.87h-9.724V7.816h9.724Z" transform="translate(-108.566)" fill="#1e3f6c"/>
          <path id="Path_105236" data-name="Path 105236" d="M226.477,196.5v1.222h1.907V196.5a1.43,1.43,0,1,0-1.907,0Z" transform="translate(-215.228 -184.753)" fill="#1e3f6c"/>
          <path id="Path_105237" data-name="Path 105237" d="M22.021,312H20.877v1.907h1.144a.477.477,0,0,1,.477.477v4.767a.477.477,0,0,1-.477.477H2.383a.477.477,0,0,1-.477-.477v-4.767a.477.477,0,0,1,.477-.477H3.527V312H2.383A2.386,2.386,0,0,0,0,314.383v4.767a2.386,2.386,0,0,0,2.383,2.383H22.021A2.386,2.386,0,0,0,24.4,319.15v-4.767A2.386,2.386,0,0,0,22.021,312Z" transform="translate(0 -297.128)" fill="#1e3f6c"/>
          <circle id="Ellipse_1260" data-name="Ellipse 1260" cx="1" cy="1" r="1" transform="translate(8.885 18.885)" fill="#1e3f6c"/>
          <circle id="Ellipse_1261" data-name="Ellipse 1261" cx="1" cy="1" r="1" transform="translate(16.885 18.885)" fill="#1e3f6c"/>
          <circle id="Ellipse_1262" data-name="Ellipse 1262" cx="1" cy="1" r="1" transform="translate(4.885 18.885)" fill="#1e3f6c"/>
          <circle id="Ellipse_1263" data-name="Ellipse 1263" cx="1" cy="1" r="1" transform="translate(12.885 18.885)" fill="#1e3f6c"/>
        </g>
      </g>
    </g>
  </g>
</svg>
