<svg xmlns="http://www.w3.org/2000/svg" width="30" height="30" viewBox="0 0 30 30">
  <g id="chat_sm" transform="translate(-5361 -2772)">
    <circle id="Ellipse_1155" data-name="Ellipse 1155" cx="15" cy="15" r="15" transform="translate(5361 2772)" fill="#f2f1f6"/>
    <path id="comment" d="M12.49-1.332H1.991A1.993,1.993,0,0,0,0,.659V7.083A1.993,1.993,0,0,0,1.984,9.074V11.99l4.19-2.915H12.49A1.993,1.993,0,0,0,14.48,7.083V.659A1.993,1.993,0,0,0,12.49-1.332ZM10.6,6.134H3.876V5.286H10.6Zm0-1.81H3.876V3.476H10.6Zm0-1.81H3.876V1.666H10.6Zm0,0" transform="translate(5369 2781.332)" fill="#2b78c8"/>
  </g>
</svg>
