<svg xmlns="http://www.w3.org/2000/svg" width="60.483" height="60.483" viewBox="0 0 60.483 60.483">
  <g id="chat_customer" transform="translate(0)">
    <path id="Path_105361" data-name="Path 105361" d="M189.368,179.379a24.875,24.875,0,0,0-2.238-34.8,28.444,28.444,0,0,1-27.324,36.2c-.362,0,1.825.013-6.791-.04a24.777,24.777,0,0,0,17.54,7.246l23.1-.118a1.773,1.773,0,0,0,1.236-3.033Z" transform="translate(-134.94 -127.501)" fill="#2b78c8"/>
    <path id="Path_105362" data-name="Path 105362" d="M24.866,49.733a24.863,24.863,0,1,0-18.812-8.6L.528,46.581a1.773,1.773,0,0,0,1.236,3.033ZM14.294,16.066H35.556a1.772,1.772,0,0,1,0,3.544H14.294a1.772,1.772,0,0,1,0-3.544Zm0,7.088H35.556a1.772,1.772,0,0,1,0,3.544H14.294a1.772,1.772,0,0,1,0-3.544Zm-1.772,8.86a1.772,1.772,0,0,1,1.772-1.772H35.556a1.772,1.772,0,0,1,0,3.544H14.294a1.772,1.772,0,0,1-1.772-1.772Z" fill="#2b78c8"/>
  </g>
</svg>
