<svg xmlns="http://www.w3.org/2000/svg" width="62" height="62" viewBox="0 0 62 62">
  <g id="complete_bookings" transform="translate(-768 -192)">
    <circle id="_1" data-name="1" cx="31" cy="31" r="31" transform="translate(768 192)" fill="#f2f1f6"/>
    <g id="_1356635" data-name="1356635" transform="translate(786 210)">
      <path id="Path_105302" data-name="Path 105302" d="M194.567,281.764a.765.765,0,0,0,1.082,0l2.732-2.732a.765.765,0,1,0-1.082-1.082l-2.191,2.19-1-1a.765.765,0,0,0-1.082,1.082Zm0,0" transform="translate(-183.046 -263.67)" fill="#2b78c8"/>
      <path id="Path_105303" data-name="Path 105303" d="M136.179,211.964a6.074,6.074,0,1,0-6.074-6.074A6.081,6.081,0,0,0,136.179,211.964Zm0-10.618a4.544,4.544,0,1,1-4.544,4.544A4.549,4.549,0,0,1,136.179,201.346Zm0,0" transform="translate(-123.52 -189.703)" fill="#2b78c8"/>
      <path id="Path_105304" data-name="Path 105304" d="M22.843,1.629h-1.4V.765a.765.765,0,1,0-1.53,0v.864h-1.5V.765a.765.765,0,0,0-1.53,0v.864H8.434V.765a.765.765,0,0,0-1.53,0v.864H5.4V.765a.765.765,0,0,0-1.53,0v.864h-1.4A2.477,2.477,0,0,0,0,4.1V23.438a2.477,2.477,0,0,0,2.474,2.474H22.843a2.477,2.477,0,0,0,2.474-2.474V4.1a2.477,2.477,0,0,0-2.474-2.475Zm.944,21.809a.945.945,0,0,1-.944.944H2.474a.945.945,0,0,1-.944-.944V7.991H23.787ZM1.53,4.1a.945.945,0,0,1,.944-.944h1.4v.864a.765.765,0,0,0,1.53,0V3.16H6.9v.864a.765.765,0,0,0,1.53,0V3.16h8.449v.864a.765.765,0,0,0,1.53,0V3.16h1.5v.864a.765.765,0,0,0,1.53,0V3.16h1.4a.945.945,0,0,1,.944.944V6.461H1.53Zm0,0" fill="#2b78c8"/>
    </g>
  </g>
</svg>
