<svg xmlns="http://www.w3.org/2000/svg" width="41.618" height="51.975" viewBox="0 0 41.618 51.975">
  <g id="copy" transform="translate(0)">
    <g id="Group_6989" data-name="Group 6989">
      <path id="Path_44073" data-name="Path 44073" d="M76.921,85.4H52.759a4.111,4.111,0,0,0-4.109,4.109v34.668a4.111,4.111,0,0,0,4.109,4.109H76.921a4.111,4.111,0,0,0,4.109-4.109V89.509A4.125,4.125,0,0,0,76.921,85.4Zm1.224,38.766A1.236,1.236,0,0,1,76.91,125.4H52.748a1.236,1.236,0,0,1-1.235-1.235V89.509a1.236,1.236,0,0,1,1.235-1.235H76.91a1.236,1.236,0,0,1,1.235,1.235Z" transform="translate(-48.65 -76.31)" fill="#fff"/>
      <path id="Path_44074" data-name="Path 44074" d="M163.721,0H139.559a4.111,4.111,0,0,0-4.109,4.109,1.437,1.437,0,1,0,2.874,0,1.236,1.236,0,0,1,1.235-1.235h24.162a1.236,1.236,0,0,1,1.235,1.235V38.776a1.236,1.236,0,0,1-1.235,1.235,1.437,1.437,0,1,0,0,2.874,4.111,4.111,0,0,0,4.109-4.109V4.109A4.111,4.111,0,0,0,163.721,0Z" transform="translate(-126.211)" fill="#fff"/>
    </g>
  </g>
</svg>
