<svg xmlns="http://www.w3.org/2000/svg" width="202.301" height="49.318" viewBox="0 0 202.301 49.318">
  <g id="dashboard_logo" transform="translate(0.003 0)">
    <g id="Layer_1" data-name="Layer 1" transform="translate(-0.003 0)">
      <path id="Path_104812" data-name="Path 104812" d="M35.148,58.025H32.442c-2.468,0-3.98-.37-4.549-1.1a1.768,1.768,0,0,1-.387-1.137.9.9,0,0,1,.472-.881,3.826,3.826,0,0,1,1.257-.347,3.821,3.821,0,0,0,1.086-.256,1.8,1.8,0,0,0,.95-1.774V41.115H9.4V52.532a1.9,1.9,0,0,0,.6,1.6,2.758,2.758,0,0,0,1.467.569,7.107,7.107,0,0,1,1.1.165.87.87,0,0,1,.694.972,2,2,0,0,1-.387,1.291,2.274,2.274,0,0,1-1.4.648,30.186,30.186,0,0,1-4.878.256,29.69,29.69,0,0,1-4.549-.2C.732,57.485.05,56.791,0,55.734q0-.9,1.74-1.137a5.027,5.027,0,0,0,1.1-.25,1.737,1.737,0,0,0,1-1.814v-24.9a1.867,1.867,0,0,0-1.916-2.1C.84,25.474.255,25.286.152,25.047A2.422,2.422,0,0,1,0,24.1,1.649,1.649,0,0,1,.38,23.04a2.274,2.274,0,0,1,1.382-.648A32.71,32.71,0,0,1,6.6,22.159a30.037,30.037,0,0,1,4.549.2q2.047.489,2.1,2.1c0,.608-.6.984-1.791,1.137a3.855,3.855,0,0,0-1.069.2,1.767,1.767,0,0,0-1,1.842v10.53H31.27V27.629a1.871,1.871,0,0,0-1.916-2.07,2.928,2.928,0,0,1-1.6-.438,1.137,1.137,0,0,1-.3-.83,1.706,1.706,0,0,1,.233-.9,1.529,1.529,0,0,1,.739-.6c.341-.142.671-.262.984-.358a6.522,6.522,0,0,1,1.365-.188c.87-.051,1.6-.08,2.2-.08h.972a17.453,17.453,0,0,1,4.725.387c1.342.478,2.018,1.137,2.018,1.916a.785.785,0,0,1-.489.779,4.588,4.588,0,0,1-1.274.307,4.02,4.02,0,0,0-1.075.216,1.842,1.842,0,0,0-1,1.865v24.9a1.916,1.916,0,0,0,.6,1.6,2.775,2.775,0,0,0,1.456.569,8.221,8.221,0,0,1,1.137.165.773.773,0,0,1,.665.83,2.542,2.542,0,0,1-.193,1.052,1.427,1.427,0,0,1-.677.637,6.369,6.369,0,0,1-.87.37,5.22,5.22,0,0,1-1.228.182C36.9,58,36.035,58.025,35.148,58.025Z" transform="translate(0.003 -9.554)" fill="#fff"/>
      <path id="Path_104813" data-name="Path 104813" d="M83.693,56.52H81.5c-2.235,0-3.61-.341-4.139-1.023A1.751,1.751,0,0,1,77,54.359a.927.927,0,0,1,.512-.91,2.741,2.741,0,0,1,1.137-.279,2.047,2.047,0,0,0,1.137-.4,1.365,1.365,0,0,0,.512-1.188V24.668q0-2.331-1.837-2.507l-.489-.051-.409-.034-.318-.051a1.138,1.138,0,0,1-.284-.091A.875.875,0,0,1,76.8,21.8c-.119-.1-.176-.347-.176-.739a1.706,1.706,0,0,1,.785-1.222,5.89,5.89,0,0,1,3.855-1.177,7.831,7.831,0,0,1,3.013.307,1.882,1.882,0,0,1,.876,1.586V51.641c0,.989.569,1.512,1.649,1.569s1.649.5,1.649,1.319a1.629,1.629,0,0,1-1.535,1.706A15.846,15.846,0,0,1,83.693,56.52Z" transform="translate(-33.054 -8.048)" fill="#fff"/>
      <path id="Path_104814" data-name="Path 104814" d="M105.788,40.241l-1.558.028a3.883,3.883,0,0,1-1.382-.182.722.722,0,0,1-.432-.751,1.433,1.433,0,0,1,.495-1.052,3.633,3.633,0,0,1,1.137-.728,5.29,5.29,0,0,0,2.109-1.211,14,14,0,0,0,1.035-2.183q1.706-4.213,2.843-4.213c.392,0,.62.421.677,1.262s.1,1.484.1,1.927,0,1.1,0,1.979v1.831H116.9a2.468,2.468,0,0,1,1.507.449,1.4,1.4,0,0,1,.614,1.188,1.319,1.319,0,0,1-.6,1.137,2.587,2.587,0,0,1-1.5.409h-6.129V53.21q0,5.544,2.786,5.544a8.347,8.347,0,0,0,2.274-.478,8.881,8.881,0,0,1,1.967-.472c.694,0,1.046.4,1.046,1.2q0,.95-2.468,1.893a13.976,13.976,0,0,1-5.055.944,4.736,4.736,0,0,1-4.065-2.018,8.821,8.821,0,0,1-1.467-5.311Z" transform="translate(-44.181 -12.921)" fill="#fff"/>
      <path id="Path_104815" data-name="Path 104815" d="M226.062,63.546a12.345,12.345,0,0,1-3.542-9.222,12.7,12.7,0,0,1,3.565-9.342,12.27,12.27,0,0,1,9.1-3.588,10.376,10.376,0,0,1,7.391,2.843,9.308,9.308,0,0,1,2.962,7.067c0,1.382-1.086,2.07-3.269,2.07H227.484a10.058,10.058,0,0,0,2.7,6.976,8.682,8.682,0,0,0,6.641,2.843,9.666,9.666,0,0,0,5.134-1.558,5.038,5.038,0,0,1,1.706-.819,1.461,1.461,0,0,1,.847.37,1.137,1.137,0,0,1,.472.9,3.26,3.26,0,0,1-1.8,2.593,13.191,13.191,0,0,1-3.98,1.763,15,15,0,0,1-3.8.569A12.765,12.765,0,0,1,226.062,63.546ZM240.845,50.7a7.6,7.6,0,0,0-1.535-4.782,5.237,5.237,0,0,0-4.327-1.837A6.982,6.982,0,0,0,230,46.119a6.783,6.783,0,0,0-2.274,4.679h5.981q3.986,0,7.13-.1Z" transform="translate(-95.999 -17.856)" fill="#fff"/>
      <path id="Path_104816" data-name="Path 104816" d="M275.822,66.466h-2.195c-2.234,0-3.61-.341-4.139-1.023a1.752,1.752,0,0,1-.358-1.137.927.927,0,0,1,.512-.91,2.747,2.747,0,0,1,1.137-.279,2.07,2.07,0,0,0,1.137-.4,1.365,1.365,0,0,0,.512-1.188V48.971c0-1.518-.188-2.456-.569-2.814a3.269,3.269,0,0,0-.921-.688q-.559-.219-1.137-.381a9.267,9.267,0,0,1-1.291-.461.745.745,0,0,1-.5-.688q0-2.047,5.492-2.047,2.325,0,2.951.807c.421.534.625,1.774.625,3.713a7.028,7.028,0,0,1,2.866-3.446,7.659,7.659,0,0,1,4.111-1.251,6.175,6.175,0,0,1,3.474.9,2.7,2.7,0,0,1,1.37,2.274,2.877,2.877,0,0,1-.9,2.217,3.087,3.087,0,0,1-2.195.83,3.639,3.639,0,0,1-2.235-.688,3.133,3.133,0,0,1-1.217-1.785,7.467,7.467,0,0,0-1.1-.1q-3.98,0-3.98,9.171v7.05c0,.989.569,1.512,1.649,1.569s1.649.5,1.649,1.319a1.629,1.629,0,0,1-1.535,1.706,15.812,15.812,0,0,1-3.218.284Z" transform="translate(-115.624 -17.995)" fill="#fff"/>
      <path id="Path_104817" data-name="Path 104817" d="M314.268,50.152a4.082,4.082,0,0,1-2.144-.756,2.24,2.24,0,0,1-1.188-1.956,4.151,4.151,0,0,1,.694-2.274,5.606,5.606,0,0,1,1.791-1.751,11.12,11.12,0,0,1,2.553-1.137,18.763,18.763,0,0,1,5.72-.847q5.157,0,7.5,2.274t2.337,7.545v7.562q0,2.735.688,3.411a3.457,3.457,0,0,0,1.137.461c1.74.569,2.61.967,2.61,1.251q0,2.684-5.492,2.684-2.075,0-2.7-.921a6.491,6.491,0,0,1-.677-3.343,8.478,8.478,0,0,1-3.531,3.326,10.348,10.348,0,0,1-5.032,1.279,13.185,13.185,0,0,1-4.549-.688,6.555,6.555,0,0,1-3.025-2.235,5.464,5.464,0,0,1-1.137-3.338,8.467,8.467,0,0,1,.4-2.843,6.367,6.367,0,0,1,1.023-1.825,5.743,5.743,0,0,1,1.706-1.33,14.433,14.433,0,0,1,1.979-.932,15.294,15.294,0,0,1,2.371-.625q2.149-.409,3.6-.569c.972-.114,1.473-.176,1.507-.193s.688-.08,1.751-.193a6.561,6.561,0,0,0,2.513-.677q0-4.856-1.3-6.334A4.864,4.864,0,0,0,321.6,43.9a5.294,5.294,0,0,0-3.946,1.336,5.9,5.9,0,0,0-1.313,4.253v.569A17.238,17.238,0,0,1,314.268,50.152Zm12.349,3.628a16.757,16.757,0,0,1-3.917.881,24.383,24.383,0,0,0-3.44.569,8.728,8.728,0,0,0-2.092.819,4.082,4.082,0,0,0-1.939,3.855q0,4.389,5.117,4.4a5.279,5.279,0,0,0,5.595-4.213A23.542,23.542,0,0,0,326.617,53.779Z" transform="translate(-133.664 -17.873)" fill="#fff"/>
      <rect id="Rectangle_17538" data-name="Rectangle 17538" width="3.377" height="29.845" transform="translate(87.722 3.377) rotate(-90)" fill="#fff"/>
      <rect id="Rectangle_17539" data-name="Rectangle 17539" width="0.006" height="20.15" transform="translate(117.566 25.717)" fill="#fff"/>
      <path id="Path_104818" data-name="Path 104818" d="M169.3,32.38a.233.233,0,0,0,0,.466h.921c-.108-.154-.2-.313-.3-.466Z" transform="translate(-72.939 -13.97)" fill="#fff"/>
      <path id="Path_104819" data-name="Path 104819" d="M175.335,25.058a.233.233,0,0,1,.239-.159.227.227,0,0,1,.21.182l1.063,4.549,1.706-3.98a.222.222,0,0,1,.216-.142h0a.233.233,0,0,1,.216.142l.654,1.632.6-1.421a.233.233,0,0,1,.193-.142.216.216,0,0,1,.216.1l.705,1.075h.472a4.6,4.6,0,0,0,.2-.569c.859-3.32-3.008-6.186-6.362-2.843-3.355-3.355-7.215-.489-6.357,2.843a5.72,5.72,0,0,0,.7,1.547h4.4Z" transform="translate(-72.989 -9.485)" fill="#fff"/>
      <path id="Path_104820" data-name="Path 104820" d="M181.85,30.313l-.569-.813-.66,1.535a.233.233,0,0,1-.432,0l-.614-1.626-1.763,4.139a.233.233,0,0,1-.216.142h0a.239.239,0,0,1-.21-.182L176.335,29l-.739,2.229a.239.239,0,0,1-.222.159H171.11a24.059,24.059,0,0,0,5.356,4.975s4.406-2.945,5.942-5.947h-.381A.245.245,0,0,1,181.85,30.313Z" transform="translate(-73.819 -12.511)" fill="#fff"/>
      <path id="Path_104821" data-name="Path 104821" d="M146.635,62.475a15.352,15.352,0,0,1-3.736-.569,9.211,9.211,0,0,1-1.365-.517,8.529,8.529,0,0,1-4.236-4.446,9.586,9.586,0,0,1-.688-2.934,10.307,10.307,0,0,1,0-1.45,12.825,12.825,0,0,1,.125-1.387,12.037,12.037,0,0,1,.705-2.763,9.917,9.917,0,0,1,1.427-2.542,10.235,10.235,0,0,1,2.041-2.013,13.419,13.419,0,0,1,2.365-1.438,19.552,19.552,0,0,1,3.372-1.239h0c.569-.154,1.1-.284,1.649-.392q2.405-.478,4.782-.751l.324-.04c1.626-.2,3.252-.353,4.878-.5q4.975-.432,9.944-.682.762-.034,1.518-.1c1.137-.1,2.229-.239,3.338-.409a31,31,0,0,0,3.411-.733c.432-.125.859-.256,1.274-.409a10.678,10.678,0,0,0,2.115-1.018,4.133,4.133,0,0,0,1.5-1.558,2.616,2.616,0,0,0,.239-1.006,1.773,1.773,0,0,0,0-.483,1.04,1.04,0,0,0-.188-.392,3.593,3.593,0,0,0-1.882-1.04,12.6,12.6,0,0,0-2.371-.4l-.665-.04c-.569,0-1.2,0-1.8-.04l-3.275-.08h-3.917c.08-.154.159-.313.222-.466h3.633l3.338-.08c.569,0,1.188-.034,1.8-.04h.711a13.374,13.374,0,0,1,2.536.335,4.338,4.338,0,0,1,2.405,1.279,1.961,1.961,0,0,1,.375.705,2.639,2.639,0,0,1,.08.751,3.446,3.446,0,0,1-.284,1.4,5.117,5.117,0,0,1-1.814,2.058,12.31,12.31,0,0,1-2.3,1.228c-.569.227-1.137.432-1.706.608h0a31.356,31.356,0,0,1-3.161.8c-1.08.21-2.172.392-3.264.534l-.33.045q-.7.085-1.4.154c-3.281.324-6.567.705-9.831,1.137-1.706.244-3.411.495-5.117.79l-.324.057-6.431,1.547h0a10.975,10.975,0,0,0-5.322,3.707,6.482,6.482,0,0,0-.9,1.819,8.421,8.421,0,0,0-.415,2.058,7.494,7.494,0,0,0,.534,3.98,4.873,4.873,0,0,0,2.524,2.462,6.7,6.7,0,0,0,3.548.313Z" transform="translate(-58.924 -13.163)" fill="#fff"/>
      <path id="Path_104822" data-name="Path 104822" d="M180.214,25.605c.08-.154.159-.313.222-.466h2.053v-3.98a6.641,6.641,0,0,1,.881-3.309H166V34.515h.068c1.626-.2,3.252-.353,4.878-.5q4.975-.432,9.944-.682.762-.034,1.518-.1h.08V25.605Z" transform="translate(-71.615 -7.701)" fill="none"/>
      <path id="Path_104823" data-name="Path 104823" d="M180.354,47.816c-3.281.324-6.567.705-9.831,1.137-1.706.244-3.411.495-5.117.79h-.068v13.47a6.648,6.648,0,0,1-.9,3.338H167.1V51.632h12.964V66.443h1.757V47.68h-.068Z" transform="translate(-70.941 -20.57)" fill="none"/>
      <path id="Path_104824" data-name="Path 104824" d="M206.78,38.051c.432-.125.859-.256,1.274-.409a10.676,10.676,0,0,0,2.115-1.018,4.134,4.134,0,0,0,1.5-1.558,2.615,2.615,0,0,0,.239-1.006,1.773,1.773,0,0,0,0-.483,1.041,1.041,0,0,0-.188-.392,3.594,3.594,0,0,0-1.882-1.04,12.6,12.6,0,0,0-2.371-.4l-.665-.04h0v6.351Z" transform="translate(-89.208 -13.676)" fill="none"/>
      <path id="Path_104825" data-name="Path 104825" d="M143.845,57.847a6.482,6.482,0,0,0-.9,1.819,8.42,8.42,0,0,0-.415,2.058,7.494,7.494,0,0,0,.534,3.98,4.873,4.873,0,0,0,2.547,2.456,6.675,6.675,0,0,0,3.542.313V54.14A11.141,11.141,0,0,0,143.845,57.847Z" transform="translate(-61.457 -23.357)" fill="none"/>
      <path id="Path_104826" data-name="Path 104826" d="M180.7,53.459V30.846h0a31.358,31.358,0,0,1-3.161.8c-1.08.21-2.172.392-3.264.534l-.262.04V50.98h-1.757V36.191H159.3v14.9h-2.655a6.647,6.647,0,0,0,.876-3.32v-32.5h17.359a6.641,6.641,0,0,0-.87,3.309V30.642c1.1-.1,2.183-.233,3.269-.4a31,31,0,0,0,3.411-.733V12.879h4.5V11.89H146.34v.989h4.5V50.246h0v4.2H162.67V39.574h6.22V54.448h16.318v-.989Z" transform="translate(-63.133 -5.13)" fill="#fff"/>
    </g>
  </g>
</svg>
