<svg xmlns="http://www.w3.org/2000/svg" width="21.3" height="21.3" viewBox="0 0 21.3 21.3">
  <g id="dashboard_active" transform="translate(3968.15 739.15)">
    <path id="Path_63476" data-name="Path 63476" d="M8.094,7H1.531A1.533,1.533,0,0,1,0,5.469V1.531A1.533,1.533,0,0,1,1.531,0H8.094A1.533,1.533,0,0,1,9.625,1.531V5.469A1.533,1.533,0,0,1,8.094,7ZM1.531,1.313a.219.219,0,0,0-.219.219V5.469a.219.219,0,0,0,.219.219H8.094a.219.219,0,0,0,.219-.219V1.531a.219.219,0,0,0-.219-.219Zm0,0" transform="translate(-3968 -739)" fill="#1e3f6c" stroke="#1e3f6c" stroke-width="0.3"/>
    <path id="Path_63477" data-name="Path 63477" d="M8.094,225.582H1.531A1.533,1.533,0,0,1,0,224.051v-9.187a1.533,1.533,0,0,1,1.531-1.531H8.094a1.533,1.533,0,0,1,1.531,1.531v9.187A1.533,1.533,0,0,1,8.094,225.582ZM1.531,214.645a.219.219,0,0,0-.219.219v9.187a.219.219,0,0,0,.219.219H8.094a.219.219,0,0,0,.219-.219v-9.187a.219.219,0,0,0-.219-.219Zm0,0" transform="translate(-3968 -943.582)" fill="#1e3f6c" stroke="#1e3f6c" stroke-width="0.3"/>
    <path id="Path_63478" data-name="Path 63478" d="M285.426,348.332h-6.562a1.533,1.533,0,0,1-1.531-1.531v-3.937a1.533,1.533,0,0,1,1.531-1.531h6.562a1.533,1.533,0,0,1,1.531,1.531V346.8A1.533,1.533,0,0,1,285.426,348.332Zm-6.562-5.688a.219.219,0,0,0-.219.219V346.8a.219.219,0,0,0,.219.219h6.562a.219.219,0,0,0,.219-.219v-3.937a.219.219,0,0,0-.219-.219Zm0,0" transform="translate(-4233.957 -1066.332)" fill="#1e3f6c" stroke="#1e3f6c" stroke-width="0.3"/>
    <path id="Path_63479" data-name="Path 63479" d="M285.426,12.25h-6.562a1.533,1.533,0,0,1-1.531-1.531V1.531A1.533,1.533,0,0,1,278.863,0h6.562a1.533,1.533,0,0,1,1.531,1.531v9.187A1.533,1.533,0,0,1,285.426,12.25ZM278.863,1.313a.219.219,0,0,0-.219.219v9.187a.219.219,0,0,0,.219.219h6.562a.219.219,0,0,0,.219-.219V1.531a.219.219,0,0,0-.219-.219Zm0,0" transform="translate(-4233.957 -739)" fill="#1e3f6c" stroke="#1e3f6c" stroke-width="0.3"/>
  </g>
</svg>
