<svg xmlns="http://www.w3.org/2000/svg" width="25.913" height="28.269" viewBox="0 0 25.913 28.269">
  <g id="delete" transform="translate(-1)">
    <path id="Path_105253" data-name="Path 105253" d="M20.963,26.935H6.239A3.242,3.242,0,0,1,3,23.7V8.383a.883.883,0,1,1,1.767,0V23.7a1.474,1.474,0,0,0,1.472,1.472H20.963A1.474,1.474,0,0,0,22.435,23.7V8.383a.883.883,0,0,1,1.767,0V23.7A3.242,3.242,0,0,1,20.963,26.935Z" transform="translate(0.356 1.334)" fill="#1e3f6c"/>
    <path id="Path_105254" data-name="Path 105254" d="M26.03,10.067H1.883A.884.884,0,0,1,1,9.184V6.239A3.242,3.242,0,0,1,4.239,3H23.674a3.242,3.242,0,0,1,3.239,3.239V9.184A.884.884,0,0,1,26.03,10.067ZM2.767,8.3h22.38V6.239a1.474,1.474,0,0,0-1.472-1.472H4.239A1.474,1.474,0,0,0,2.767,6.239Z" transform="translate(0 0.534)" fill="#1e3f6c"/>
    <path id="Path_105255" data-name="Path 105255" d="M17.9,5.3a.884.884,0,0,1-.883-.883V2.061a.3.3,0,0,0-.294-.294H9.061a.3.3,0,0,0-.294.294V4.417A.883.883,0,0,1,7,4.417V2.061A2.064,2.064,0,0,1,9.061,0h7.656a2.064,2.064,0,0,1,2.061,2.061V4.417A.884.884,0,0,1,17.9,5.3Z" transform="translate(1.067)" fill="#1e3f6c"/>
    <path id="Path_105256" data-name="Path 105256" d="M12.133,21.423a.884.884,0,0,1-.883-.883V12.883a.883.883,0,1,1,1.767,0V20.54A.884.884,0,0,1,12.133,21.423Z" transform="translate(1.823 2.135)" fill="#1e3f6c"/>
    <path id="Path_105257" data-name="Path 105257" d="M7.883,21.423A.884.884,0,0,1,7,20.54V12.883a.883.883,0,1,1,1.767,0V20.54A.884.884,0,0,1,7.883,21.423Z" transform="translate(1.067 2.135)" fill="#1e3f6c"/>
    <path id="Path_105258" data-name="Path 105258" d="M16.383,21.423a.884.884,0,0,1-.883-.883V12.883a.883.883,0,1,1,1.767,0V20.54A.884.884,0,0,1,16.383,21.423Z" transform="translate(2.579 2.135)" fill="#1e3f6c"/>
  </g>
</svg>
