<svg xmlns="http://www.w3.org/2000/svg" width="66.689" height="50.798" viewBox="0 0 66.689 50.798">
  <g id="email_icon" transform="translate(0 -61)">
    <g id="Group_59643" data-name="Group 59643" transform="translate(3.35 61)">
      <g id="Group_59642" data-name="Group 59642">
        <path id="Path_105367" data-name="Path 105367" d="M83.2,61H28.232a5.793,5.793,0,0,0-2.511.587L55.585,91.452l6.694-6.433h0L85.711,61.588A5.794,5.794,0,0,0,83.2,61Z" transform="translate(-25.721 -61)" fill="#2b78c8"/>
      </g>
    </g>
    <g id="Group_59645" data-name="Group 59645" transform="translate(44.053 64.351)">
      <g id="Group_59644" data-name="Group 59644">
        <path id="Path_105368" data-name="Path 105368" d="M360.262,86.728l-22.049,22.048,22.049,22.049a5.793,5.793,0,0,0,.587-2.511V89.238A5.793,5.793,0,0,0,360.262,86.728Z" transform="translate(-338.213 -86.728)" fill="#2b78c8"/>
      </g>
    </g>
    <g id="Group_59647" data-name="Group 59647" transform="translate(0 64.35)">
      <g id="Group_59646" data-name="Group 59646">
        <path id="Path_105369" data-name="Path 105369" d="M.587,86.721A5.793,5.793,0,0,0,0,89.232v39.076a5.8,5.8,0,0,0,.587,2.51L22.636,108.77Z" transform="translate(0 -86.721)" fill="#2b78c8"/>
      </g>
    </g>
    <g id="Group_59649" data-name="Group 59649" transform="translate(3.349 89.162)">
      <g id="Group_59648" data-name="Group 59648">
        <path id="Path_105370" data-name="Path 105370" d="M63.655,277.211l-6.694,6.434a1.953,1.953,0,0,1-2.763,0l-6.434-6.434-22.05,22.048a5.794,5.794,0,0,0,2.512.588H83.192a5.793,5.793,0,0,0,2.511-.587Z" transform="translate(-25.714 -277.211)" fill="#2b78c8"/>
      </g>
    </g>
  </g>
</svg>
