<svg xmlns="http://www.w3.org/2000/svg" width="27.883" height="27.884" viewBox="0 0 27.883 27.884">
  <path id="filter_icon" d="M27.294,0H1.589A1.089,1.089,0,0,0,.5,1.089,10.638,10.638,0,0,0,4.067,9.034l4.77,4.24a3.881,3.881,0,0,1,1.3,2.9V26.794a1.09,1.09,0,0,0,1.693.906l6.426-4.284a1.089,1.089,0,0,0,.485-.906V16.172a3.881,3.881,0,0,1,1.3-2.9l4.77-4.24a10.638,10.638,0,0,0,3.567-7.944A1.089,1.089,0,0,0,27.294,0ZM23.368,7.405l-4.77,4.24a6.062,6.062,0,0,0-2.033,4.527v5.755l-4.248,2.832V16.172a6.062,6.062,0,0,0-2.033-4.527l-4.77-4.24A8.461,8.461,0,0,1,2.749,2.178H26.134a8.459,8.459,0,0,1-2.766,5.227Zm0,0" transform="translate(-0.5 0)" fill="#1e3f6c"/>
</svg>
