<svg xmlns="http://www.w3.org/2000/svg" width="25" height="25" viewBox="0 0 25 25">
  <g id="filter" transform="translate(0 0)">
    <path id="Path_105260" data-name="Path 105260" d="M20.51,0H4.49A4.5,4.5,0,0,0,0,4.49V20.51A4.5,4.5,0,0,0,4.49,25H20.51A4.5,4.5,0,0,0,25,20.51V4.49A4.5,4.5,0,0,0,20.51,0Zm.618,19.51H13.115a2.306,2.306,0,0,1-4.368,0H3.873a.735.735,0,0,1,0-1.471H8.748a2.306,2.306,0,0,1,4.368,0h8.012A.735.735,0,0,1,21.127,19.51Zm0-6.275H19.39a2.306,2.306,0,0,1-4.368,0H3.873a.735.735,0,0,1,0-1.471h11.15a2.306,2.306,0,0,1,4.368,0h1.738A.735.735,0,0,1,21.127,13.235Zm0-6.275H9.978a2.306,2.306,0,0,1-4.368,0H3.873a.735.735,0,0,1,0-1.471H5.61a2.306,2.306,0,0,1,4.368,0h11.15a.735.735,0,0,1,0,1.471Z" fill="#2b78c8"/>
    <path id="Path_105261" data-name="Path 105261" d="M207.788,367.435a.851.851,0,0,0,0,1.7A.851.851,0,0,0,207.788,367.435Z" transform="translate(-196.855 -349.522)" fill="#2b78c8"/>
    <path id="Path_105262" data-name="Path 105262" d="M143.537,110.431a.851.851,0,0,0,0,1.7A.851.851,0,0,0,143.537,110.431Z" transform="translate(-135.736 -105.047)" fill="#2b78c8"/>
    <path id="Path_105263" data-name="Path 105263" d="M336.289,238.933a.851.851,0,0,0,0,1.7A.851.851,0,0,0,336.289,238.933Z" transform="translate(-319.091 -227.284)" fill="#2b78c8"/>
  </g>
</svg>
