<svg id="gmail" xmlns="http://www.w3.org/2000/svg" width="51.975" height="38.981" viewBox="0 0 51.975 38.981">
  <rect id="Rectangle_2203" data-name="Rectangle 2203" width="38.981" height="38.981" transform="translate(6.497)" fill="#eceff1"/>
  <path id="Path_44082" data-name="Path 44082" d="M256,163.667l19.491,15.391V148.672Z" transform="translate(-230.013 -140.077)" fill="#cfd8dc"/>
  <path id="Path_44083" data-name="Path 44083" d="M47.1,64H45.478L25.987,79.391,6.5,64H4.873A4.874,4.874,0,0,0,0,68.873V98.108a4.874,4.874,0,0,0,4.873,4.873H6.5V72.6L25.987,87.587,45.478,72.592v30.389H47.1a4.874,4.874,0,0,0,4.873-4.873V68.873A4.874,4.874,0,0,0,47.1,64Z" transform="translate(0 -64)" fill="#f44336"/>
</svg>
