<svg xmlns="http://www.w3.org/2000/svg" width="40" height="40" viewBox="0 0 40 40">
  <g id="help" transform="translate(-1242.302 -193.302)">
    <circle id="Ellipse_1246" data-name="Ellipse 1246" cx="20" cy="20" r="20" transform="translate(1242.302 193.302)" fill="#f5f5f5"/>
    <g id="request" transform="translate(1250.302 201.303)">
      <path id="Path_105179" data-name="Path 105179" d="M338.8,217.6a.7.7,0,1,1-.7-.7A.7.7,0,0,1,338.8,217.6Zm0,0" transform="translate(-321.678 -206.793)" fill="#1e3f6c"/>
      <path id="Path_105180" data-name="Path 105180" d="M299.8,72.3a2.568,2.568,0,0,0-2.569,2.569h0a.7.7,0,1,0,1.4,0,1.172,1.172,0,1,1,1.173,1.173.7.7,0,0,0-.7.7v.749a.7.7,0,1,0,1.4,0v-.146a2.57,2.57,0,0,0-.7-5.044Zm0,0" transform="translate(-283.386 -68.933)" fill="#1e3f6c"/>
      <path id="Path_105181" data-name="Path 105181" d="M6.706,247.607a3.693,3.693,0,1,0-4.529,0A4.437,4.437,0,0,0,0,251.43v1.5a.7.7,0,0,0,.7.7H8.185a.7.7,0,0,0,.7-.7v-1.5a4.437,4.437,0,0,0-2.177-3.823Zm-4.56-2.914a2.3,2.3,0,1,1,2.3,2.3,2.3,2.3,0,0,1-2.3-2.3Zm5.339,7.535H1.4v-.8a3.044,3.044,0,0,1,6.087,0v.8Zm0,0" transform="translate(0 -229.773)" fill="#1e3f6c"/>
      <path id="Path_105182" data-name="Path 105182" d="M204.727,0h-8.982A2.943,2.943,0,0,0,192.8,2.944V16.417a.7.7,0,0,0,1.118.559l2.808-2.106h8a2.943,2.943,0,0,0,2.944-2.944V2.944A2.943,2.943,0,0,0,204.727,0Zm1.547,11.927a1.546,1.546,0,0,1-1.547,1.547h-8.234a.7.7,0,0,0-.419.14L194.2,15.02V2.944A1.546,1.546,0,0,1,195.745,1.4h8.982a1.546,1.546,0,0,1,1.547,1.547Zm0,0" transform="translate(-183.818 0)" fill="#1e3f6c"/>
    </g>
  </g>
</svg>
