<svg xmlns="http://www.w3.org/2000/svg" xmlns:xlink="http://www.w3.org/1999/xlink" width="12.143" height="13" viewBox="0 0 12.143 13">
  <defs>
    <clipPath id="clip-path">
      <rect id="Rectangle_11489" data-name="Rectangle 11489" width="7" height="13" transform="translate(0 0.308)" fill="none"/>
    </clipPath>
  </defs>
  <g id="icon_star" transform="translate(0 -0.308)">
    <path id="star_2_" data-name="star (2)" d="M11.391,4.812a.612.612,0,0,0-.522-.435l-3.3-.312L6.269.881a.6.6,0,0,0-1.117,0l-1.3,3.183-3.3.312a.614.614,0,0,0-.522.435.652.652,0,0,0,.177.673L2.7,7.765l-.735,3.377A.647.647,0,0,0,2.2,11.8a.585.585,0,0,0,.667.031L5.71,10.054l2.842,1.774A.586.586,0,0,0,9.22,11.8a.647.647,0,0,0,.236-.654L8.722,7.765l2.492-2.28a.652.652,0,0,0,.177-.673ZM5.765,10.019" transform="translate(0.722 0.602)" fill="#f90"/>
    <g id="Mask_Group_3" data-name="Mask Group 3" clip-path="url(#clip-path)">
      <path id="star_2_2" data-name="star (2)" d="M11.391,4.812a.612.612,0,0,0-.522-.435l-3.3-.312L6.269.881a.6.6,0,0,0-1.117,0l-1.3,3.183-3.3.312a.614.614,0,0,0-.522.435.652.652,0,0,0,.177.673L2.7,7.765l-.735,3.377A.647.647,0,0,0,2.2,11.8a.585.585,0,0,0,.667.031L5.71,10.054l2.842,1.774A.586.586,0,0,0,9.22,11.8a.647.647,0,0,0,.236-.654L8.722,7.765l2.492-2.28a.652.652,0,0,0,.177-.673ZM5.765,10.019" transform="translate(0.722 0.602)" fill="#f90"/>
    </g>
  </g>
</svg>
