<svg xmlns="http://www.w3.org/2000/svg" width="40" height="40" viewBox="0 0 40 40">
  <g id="legal" transform="translate(-1242.302 -193.302)">
    <circle id="Ellipse_1246" data-name="Ellipse 1246" cx="20" cy="20" r="20" transform="translate(1242.302 193.302)" fill="#f5f5f5"/>
    <g id="_783196" data-name="783196" transform="translate(1250.302 201.301)">
      <g id="Group_59290" data-name="Group 59290" transform="translate(4.533 7.717)">
        <g id="Group_59289" data-name="Group 59289">
          <path id="Path_105238" data-name="Path 105238" d="M101.473,171.552a.45.45,0,1,0,0,.637A.45.45,0,0,0,101.473,171.552Z" transform="translate(-100.704 -171.42)" fill="#1e3f6c" stroke="#1e3f6c" stroke-width="0.4"/>
        </g>
      </g>
      <g id="Group_59292" data-name="Group 59292" transform="translate(0 17.646)">
        <g id="Group_59291" data-name="Group 59291">
          <path id="Path_105239" data-name="Path 105239" d="M11.4,394.5a1.576,1.576,0,0,0-1.27-2.509H2.476A1.574,1.574,0,0,0,1.207,394.5,2.253,2.253,0,0,0,0,396.488v.45a.45.45,0,0,0,.45.45h11.7a.45.45,0,0,0,.45-.45v-.45A2.253,2.253,0,0,0,11.4,394.5ZM2,393.085a.671.671,0,0,1,.478-.2h7.652a.675.675,0,1,1,0,1.35H2.476A.675.675,0,0,1,2,393.085Zm-1.1,3.4a1.352,1.352,0,0,1,1.35-1.35h8.1a1.352,1.352,0,0,1,1.35,1.35Z" transform="translate(0 -391.987)" fill="#1e3f6c" stroke="#1e3f6c" stroke-width="0.4"/>
        </g>
      </g>
      <g id="Group_59294" data-name="Group 59294" transform="translate(0.001 0.001)">
        <g id="Group_59293" data-name="Group 59293" transform="translate(0 0)">
          <path id="Path_105240" data-name="Path 105240" d="M22.649,18.913a2.835,2.835,0,0,0-.542-.623L20,16.456a.447.447,0,0,0-.179-.156L18.552,15.19l-5.887-5.136a1.348,1.348,0,0,0-.4-2.15l.545-.545a1.8,1.8,0,0,0,1.738-.465,1.8,1.8,0,0,0,0-2.546L10.733.529A1.8,1.8,0,0,0,7.721,2.267L2.287,7.7a1.812,1.812,0,0,0-.466-.061A1.8,1.8,0,0,0,.548,10.714l3.819,3.819a1.8,1.8,0,0,0,3.012-1.738l.544-.544a1.351,1.351,0,0,0,2.151.395l6.271,7.2a.452.452,0,0,0,.061.076l.025.023L18.3,22.1c.046.055.1.109.148.16a2.677,2.677,0,0,0,1.9.791,2.763,2.763,0,0,0,.379-.026,2.724,2.724,0,0,0,2.01-1.391A2.664,2.664,0,0,0,22.649,18.913ZM8.823,1.165a.9.9,0,0,1,1.273,0l3.819,3.819a.9.9,0,0,1-1.273,1.273l-3.82-3.82h0A.9.9,0,0,1,8.823,1.165ZM6.277,13.9A.9.9,0,0,1,5,13.9L1.184,10.077A.9.9,0,0,1,2.457,8.8l3.82,3.82A.9.9,0,0,1,6.277,13.9Zm1.9-3.168L6.913,11.987l-3.82-3.82L8.186,3.075l3.82,3.82L10.745,8.155l-.012.012L8.188,10.712Zm1.607.939,0,0-.317.317a.45.45,0,0,1-.642-.631L11.374,8.8a.45.45,0,0,1,.764.323.446.446,0,0,1-.132.318l-.315.315-.006.006Zm.932.341,1.316-1.316,5.57,4.859-2.033,2.033Zm5.446,6.256,2.12-2.12.68.593L16.75,18.946Zm5.795,2.926a1.831,1.831,0,0,1-1.348.939,1.789,1.789,0,0,1-1.522-.51c-.035-.035-.068-.071-.1-.107l0-.005-1.638-1.882,2.3-2.3,1.879,1.639,0,0a1.938,1.938,0,0,1,.371.427A1.777,1.777,0,0,1,21.952,21.191Z" transform="translate(-0.021 -0.001)" fill="#1e3f6c" stroke="#1e3f6c" stroke-width="0.4"/>
        </g>
      </g>
      <g id="Group_59296" data-name="Group 59296" transform="translate(5.806 4.534)">
        <g id="Group_59295" data-name="Group 59295">
          <path id="Path_105241" data-name="Path 105241" d="M131.664,100.839a.45.45,0,0,0-.637,0l-1.91,1.91a.45.45,0,1,0,.637.637l1.91-1.91A.45.45,0,0,0,131.664,100.839Z" transform="translate(-128.985 -100.707)" fill="#1e3f6c" stroke="#1e3f6c" stroke-width="0.4"/>
        </g>
      </g>
    </g>
  </g>
</svg>
