<svg xmlns="http://www.w3.org/2000/svg" width="17.771" height="21.966" viewBox="0 0 17.771 21.966">
  <g id="location" transform="translate(-48.886)">
    <g id="Group_59335" data-name="Group 59335" transform="translate(48.886)">
      <g id="Group_59334" data-name="Group 59334" transform="translate(0)">
        <path id="Path_105249" data-name="Path 105249" d="M65.063,3.819a8.869,8.869,0,0,0-14.582,0,8.87,8.87,0,0,0-1.033,8.173,6.986,6.986,0,0,0,1.287,2.126L57.187,21.7a.767.767,0,0,0,1.169,0l6.45-7.576A6.993,6.993,0,0,0,66.093,12,8.872,8.872,0,0,0,65.063,3.819Zm-.408,7.64a5.479,5.479,0,0,1-1.013,1.659l0,0-5.867,6.891-5.87-6.9a5.482,5.482,0,0,1-1.015-1.664,7.337,7.337,0,0,1,.858-6.761,7.333,7.333,0,0,1,12.055,0A7.339,7.339,0,0,1,64.655,11.459Z" transform="translate(-48.886 0)" fill="#1e3f6c"/>
      </g>
    </g>
    <g id="Group_59337" data-name="Group 59337" transform="translate(53.471 4.557)">
      <g id="Group_59336" data-name="Group 59336">
        <path id="Path_105250" data-name="Path 105250" d="M160.055,106.219a4.3,4.3,0,1,0,4.3,4.3A4.306,4.306,0,0,0,160.055,106.219Zm0,7.066a2.765,2.765,0,1,1,2.765-2.765A2.768,2.768,0,0,1,160.055,113.285Z" transform="translate(-155.754 -106.219)" fill="#1e3f6c"/>
      </g>
    </g>
  </g>
</svg>
