<svg xmlns="http://www.w3.org/2000/svg" width="169.113" height="41.228" viewBox="0 0 169.113 41.228">
  <g id="logo_landing" transform="translate(0.003 0)">
    <g id="Layer_1" data-name="Layer 1" transform="translate(-0.003 0)">
      <path id="Path_104812" data-name="Path 104812" d="M29.381,52.139H27.119c-2.063,0-3.327-.309-3.8-.917a1.478,1.478,0,0,1-.323-.951.756.756,0,0,1,.394-.737,3.2,3.2,0,0,1,1.05-.29,3.194,3.194,0,0,0,.908-.214,1.507,1.507,0,0,0,.794-1.483V38H7.855v9.544a1.592,1.592,0,0,0,.5,1.336,2.305,2.305,0,0,0,1.226.475,5.941,5.941,0,0,1,.917.138.727.727,0,0,1,.58.813,1.668,1.668,0,0,1-.323,1.079,1.9,1.9,0,0,1-1.174.542,25.233,25.233,0,0,1-4.078.214,24.82,24.82,0,0,1-3.8-.171C.612,51.687.041,51.107,0,50.223q0-.751,1.454-.951a4.2,4.2,0,0,0,.922-.209,1.452,1.452,0,0,0,.832-1.516V26.729a1.561,1.561,0,0,0-1.6-1.754c-.9-.048-1.393-.2-1.478-.4A2.025,2.025,0,0,1,0,23.782a1.378,1.378,0,0,1,.318-.889,1.9,1.9,0,0,1,1.155-.542,27.344,27.344,0,0,1,4.045-.195,25.11,25.11,0,0,1,3.8.171q1.711.409,1.754,1.754c0,.509-.5.822-1.5.951a3.222,3.222,0,0,0-.894.171,1.477,1.477,0,0,0-.837,1.54v8.8H26.14V26.729a1.564,1.564,0,0,0-1.6-1.73,2.448,2.448,0,0,1-1.336-.366.951.951,0,0,1-.247-.694,1.426,1.426,0,0,1,.195-.756,1.279,1.279,0,0,1,.618-.5c.285-.119.561-.219.822-.3a5.452,5.452,0,0,1,1.141-.157c.727-.043,1.34-.067,1.839-.067h.813a14.59,14.59,0,0,1,3.95.323c1.122.4,1.687.951,1.687,1.6a.656.656,0,0,1-.409.651,3.835,3.835,0,0,1-1.065.257,3.36,3.36,0,0,0-.9.181,1.54,1.54,0,0,0-.832,1.559V47.547a1.6,1.6,0,0,0,.5,1.336,2.319,2.319,0,0,0,1.217.475,6.873,6.873,0,0,1,.951.138.646.646,0,0,1,.556.694,2.125,2.125,0,0,1-.162.879,1.193,1.193,0,0,1-.566.532,5.324,5.324,0,0,1-.727.309,4.363,4.363,0,0,1-1.027.152C30.85,52.12,30.123,52.139,29.381,52.139Z" transform="translate(0.003 -11.619)" fill="#fff"/>
      <path id="Path_104813" data-name="Path 104813" d="M82.533,50.308H80.7c-1.868,0-3.018-.285-3.46-.856a1.464,1.464,0,0,1-.3-.951.775.775,0,0,1,.428-.76,2.291,2.291,0,0,1,.951-.233,1.711,1.711,0,0,0,.951-.333,1.141,1.141,0,0,0,.428-.993v-22.5q0-1.949-1.535-2.1l-.409-.043-.342-.029-.266-.043a.951.951,0,0,1-.238-.076.732.732,0,0,1-.138-.109c-.1-.081-.147-.29-.147-.618a1.426,1.426,0,0,1,.656-1.022,4.924,4.924,0,0,1,3.223-.984,6.547,6.547,0,0,1,2.519.257,1.573,1.573,0,0,1,.732,1.326V46.23c0,.827.475,1.264,1.378,1.312s1.378.418,1.378,1.1a1.361,1.361,0,0,1-1.283,1.426A13.247,13.247,0,0,1,82.533,50.308Z" transform="translate(-40.201 -9.789)" fill="#fff"/>
      <path id="Path_104814" data-name="Path 104814" d="M105.234,38.553l-1.3.024a3.246,3.246,0,0,1-1.155-.152.6.6,0,0,1-.361-.627,1.2,1.2,0,0,1,.413-.879,3.037,3.037,0,0,1,.951-.608,4.422,4.422,0,0,0,1.763-1.012,11.7,11.7,0,0,0,.865-1.825q1.426-3.522,2.376-3.522c.328,0,.518.352.566,1.055s.081,1.241.086,1.611,0,.922,0,1.654V35.8h5.086a2.063,2.063,0,0,1,1.26.375,1.169,1.169,0,0,1,.513.993,1.1,1.1,0,0,1-.5.951,2.163,2.163,0,0,1-1.25.342h-5.124V49.395q0,4.634,2.329,4.634a6.977,6.977,0,0,0,1.9-.4,7.423,7.423,0,0,1,1.645-.395c.58,0,.875.337.875,1q0,.794-2.063,1.583a11.683,11.683,0,0,1-4.225.789,3.959,3.959,0,0,1-3.4-1.687,7.374,7.374,0,0,1-1.226-4.439Z" transform="translate(-53.733 -15.715)" fill="#fff"/>
      <path id="Path_104815" data-name="Path 104815" d="M225.481,59.911A10.32,10.32,0,0,1,222.52,52.2a10.62,10.62,0,0,1,2.98-7.809,10.257,10.257,0,0,1,7.6-3,8.674,8.674,0,0,1,6.179,2.376,7.781,7.781,0,0,1,2.476,5.908c0,1.155-.908,1.73-2.733,1.73H226.669a8.408,8.408,0,0,0,2.258,5.832,7.258,7.258,0,0,0,5.552,2.376,8.08,8.08,0,0,0,4.292-1.3,4.211,4.211,0,0,1,1.426-.684,1.222,1.222,0,0,1,.708.309.951.951,0,0,1,.394.756,2.725,2.725,0,0,1-1.507,2.167,11.027,11.027,0,0,1-3.327,1.473,12.538,12.538,0,0,1-3.18.475A10.671,10.671,0,0,1,225.481,59.911Zm12.358-10.742a6.355,6.355,0,0,0-1.283-4,4.378,4.378,0,0,0-3.617-1.535,5.837,5.837,0,0,0-4.164,1.706,5.67,5.67,0,0,0-1.9,3.912h5q3.332,0,5.96-.086Z" transform="translate(-116.755 -21.716)" fill="#fff"/>
      <path id="Path_104816" data-name="Path 104816" d="M274.541,62.405h-1.835c-1.868,0-3.018-.285-3.46-.856a1.464,1.464,0,0,1-.3-.951.775.775,0,0,1,.428-.76,2.3,2.3,0,0,1,.951-.233,1.73,1.73,0,0,0,.951-.333,1.141,1.141,0,0,0,.428-.993V47.78c0-1.269-.157-2.053-.475-2.353a2.733,2.733,0,0,0-.77-.575q-.467-.183-.951-.318a7.745,7.745,0,0,1-1.079-.385.623.623,0,0,1-.418-.575q0-1.711,4.591-1.711,1.944,0,2.467.675a5.792,5.792,0,0,1,.523,3.1,5.875,5.875,0,0,1,2.4-2.88,6.4,6.4,0,0,1,3.436-1.046,5.162,5.162,0,0,1,2.9.756,2.253,2.253,0,0,1,1.145,1.9,2.4,2.4,0,0,1-.751,1.854,2.581,2.581,0,0,1-1.835.694,3.042,3.042,0,0,1-1.868-.575A2.619,2.619,0,0,1,280,44.852a6.243,6.243,0,0,0-.917-.086q-3.327,0-3.327,7.667v5.894c0,.827.475,1.264,1.378,1.312s1.378.418,1.378,1.1a1.361,1.361,0,0,1-1.283,1.426A13.219,13.219,0,0,1,274.541,62.405Z" transform="translate(-140.623 -21.886)" fill="#fff"/>
      <path id="Path_104817" data-name="Path 104817" d="M313.539,48.721a3.413,3.413,0,0,1-1.792-.632,1.873,1.873,0,0,1-.993-1.635,3.471,3.471,0,0,1,.58-1.9,4.687,4.687,0,0,1,1.5-1.464,9.3,9.3,0,0,1,2.134-.951,15.685,15.685,0,0,1,4.781-.708q4.311,0,6.269,1.9t1.953,6.307v6.321q0,2.286.575,2.852a2.89,2.89,0,0,0,.951.385c1.454.475,2.182.808,2.182,1.046q0,2.243-4.591,2.243-1.735,0-2.253-.77a5.426,5.426,0,0,1-.566-2.795,7.087,7.087,0,0,1-2.952,2.781,8.65,8.65,0,0,1-4.206,1.069,11.022,11.022,0,0,1-3.8-.575,5.48,5.48,0,0,1-2.529-1.868,4.568,4.568,0,0,1-.951-2.79,7.079,7.079,0,0,1,.337-2.376,5.322,5.322,0,0,1,.855-1.526,4.8,4.8,0,0,1,1.426-1.112,12.067,12.067,0,0,1,1.654-.779,12.784,12.784,0,0,1,1.982-.523q1.8-.342,3.013-.475c.813-.1,1.231-.147,1.26-.162s.575-.067,1.464-.162a5.485,5.485,0,0,0,2.1-.566q0-4.059-1.088-5.295A4.066,4.066,0,0,0,319.67,43.5a4.425,4.425,0,0,0-3.3,1.117,4.93,4.93,0,0,0-1.1,3.555v.475A14.41,14.41,0,0,1,313.539,48.721Zm10.324,3.032a14.009,14.009,0,0,1-3.275.737,20.38,20.38,0,0,0-2.876.475,7.3,7.3,0,0,0-1.749.684,3.412,3.412,0,0,0-1.621,3.223q0,3.669,4.278,3.674a4.413,4.413,0,0,0,4.677-3.522A19.681,19.681,0,0,0,323.862,51.753Z" transform="translate(-162.563 -21.738)" fill="#fff"/>
      <rect id="Rectangle_17538" data-name="Rectangle 17538" width="2.823" height="24.949" transform="translate(73.331 2.823) rotate(-90)" fill="#fff"/>
      <rect id="Rectangle_17539" data-name="Rectangle 17539" width="0.005" height="16.845" transform="translate(98.279 21.498)" fill="#fff"/>
      <path id="Path_104818" data-name="Path 104818" d="M169.265,32.38a.195.195,0,0,0,0,.39h.77c-.09-.128-.171-.261-.252-.39Z" transform="translate(-88.71 -16.99)" fill="#fff"/>
      <path id="Path_104819" data-name="Path 104819" d="M174.326,24.554a.2.2,0,0,1,.2-.133.19.19,0,0,1,.176.152l.889,3.8,1.426-3.327a.185.185,0,0,1,.181-.119h0a.2.2,0,0,1,.181.119l.547,1.364.5-1.188a.2.2,0,0,1,.162-.119.181.181,0,0,1,.181.086l.589.9h.395a3.842,3.842,0,0,0,.166-.475c.718-2.776-2.514-5.171-5.319-2.377-2.8-2.8-6.032-.409-5.314,2.377a4.782,4.782,0,0,0,.585,1.293h3.674Z" transform="translate(-88.771 -11.535)" fill="#fff"/>
      <path id="Path_104820" data-name="Path 104820" d="M180.088,30.1l-.475-.68-.551,1.283a.195.195,0,0,1-.361,0l-.513-1.359-1.473,3.46a.2.2,0,0,1-.181.119h0a.2.2,0,0,1-.176-.152L175.478,29l-.618,1.863a.2.2,0,0,1-.185.133H171.11a20.113,20.113,0,0,0,4.477,4.159s3.684-2.462,4.967-4.972h-.318A.2.2,0,0,1,180.088,30.1Z" transform="translate(-89.78 -15.216)" fill="#fff"/>
      <path id="Path_104821" data-name="Path 104821" d="M144.986,57.231a12.833,12.833,0,0,1-3.123-.475,7.7,7.7,0,0,1-1.141-.433,7.13,7.13,0,0,1-3.541-3.717,8.014,8.014,0,0,1-.575-2.453,8.616,8.616,0,0,1,0-1.212,10.728,10.728,0,0,1,.1-1.16,10.062,10.062,0,0,1,.589-2.31,8.29,8.29,0,0,1,1.193-2.125,8.556,8.556,0,0,1,1.706-1.683,11.218,11.218,0,0,1,1.977-1.2A16.345,16.345,0,0,1,145,39.427h0c.475-.128.917-.238,1.378-.328q2.01-.4,4-.627l.271-.033c1.359-.166,2.719-.295,4.078-.418q4.159-.361,8.313-.57.637-.029,1.269-.086c.951-.081,1.863-.2,2.79-.342a25.921,25.921,0,0,0,2.852-.613c.361-.1.718-.214,1.065-.342a8.927,8.927,0,0,0,1.768-.851,3.455,3.455,0,0,0,1.255-1.3,2.186,2.186,0,0,0,.2-.841,1.482,1.482,0,0,0,0-.4.87.87,0,0,0-.157-.328,3,3,0,0,0-1.573-.87,10.533,10.533,0,0,0-1.982-.337l-.556-.033c-.475,0-1,0-1.5-.033L165.723,31h-3.275c.067-.128.133-.261.185-.39h3.037l2.79-.067c.475,0,.993-.029,1.5-.033h.594a11.179,11.179,0,0,1,2.12.28,3.627,3.627,0,0,1,2.011,1.069,1.639,1.639,0,0,1,.314.589,2.206,2.206,0,0,1,.067.627,2.881,2.881,0,0,1-.238,1.174,4.278,4.278,0,0,1-1.516,1.721A10.29,10.29,0,0,1,171.389,37c-.475.19-.951.361-1.426.509h0a26.212,26.212,0,0,1-2.643.665c-.9.176-1.816.328-2.728.447l-.276.038q-.585.071-1.169.128c-2.742.271-5.49.589-8.218.951-1.426.2-2.852.414-4.278.661l-.271.048L145,41.737h0a9.175,9.175,0,0,0-4.449,3.1,5.419,5.419,0,0,0-.756,1.521,7.04,7.04,0,0,0-.347,1.721A6.264,6.264,0,0,0,139.9,51.4a4.074,4.074,0,0,0,2.11,2.058,5.6,5.6,0,0,0,2.966.261Z" transform="translate(-71.665 -16.009)" fill="#fff"/>
      <path id="Path_104822" data-name="Path 104822" d="M177.883,24.333c.066-.128.133-.261.185-.39h1.716V20.616a5.551,5.551,0,0,1,.737-2.766H166V31.781h.057c1.359-.166,2.719-.295,4.078-.418q4.159-.361,8.313-.57.637-.029,1.269-.086h.067V24.333Z" transform="translate(-87.099 -9.366)" fill="none"/>
      <path id="Path_104823" data-name="Path 104823" d="M177.743,47.794c-2.742.271-5.49.589-8.218.951-1.426.2-2.852.414-4.278.661h-.057v11.26a5.557,5.557,0,0,1-.751,2.79h2.22V50.983H177.5V63.365h1.469V47.68h-.057Z" transform="translate(-86.28 -25.018)" fill="none"/>
      <path id="Path_104824" data-name="Path 104824" d="M206.78,37.009c.361-.1.718-.214,1.065-.342a8.925,8.925,0,0,0,1.768-.851,3.455,3.455,0,0,0,1.255-1.3,2.186,2.186,0,0,0,.2-.841,1.48,1.48,0,0,0,0-.4.87.87,0,0,0-.157-.328,3,3,0,0,0-1.573-.87,10.533,10.533,0,0,0-1.982-.337L206.8,31.7h0v5.309Z" transform="translate(-108.496 -16.633)" fill="none"/>
      <path id="Path_104825" data-name="Path 104825" d="M143.617,57.239a5.418,5.418,0,0,0-.756,1.521,7.039,7.039,0,0,0-.347,1.721,6.264,6.264,0,0,0,.447,3.327,4.073,4.073,0,0,0,2.129,2.053,5.58,5.58,0,0,0,2.961.261V54.14A9.313,9.313,0,0,0,143.617,57.239Z" transform="translate(-74.745 -28.407)" fill="none"/>
      <path id="Path_104826" data-name="Path 104826" d="M175.067,46.639v-18.9h0a26.214,26.214,0,0,1-2.643.665c-.9.176-1.816.328-2.728.447l-.219.033V44.567h-1.469V32.2H157.172V44.662h-2.22a5.557,5.557,0,0,0,.732-2.776V14.718H170.2a5.551,5.551,0,0,0-.727,2.766V27.565c.917-.081,1.825-.195,2.733-.337a25.915,25.915,0,0,0,2.852-.613v-13.9h3.76V11.89H146.34v.827H150.1V43.954h0v3.508h9.886V35.032h5.2V47.466h13.641v-.827Z" transform="translate(-76.783 -6.239)" fill="#fff"/>
    </g>
  </g>
</svg>
