<svg xmlns="http://www.w3.org/2000/svg" width="51.974" height="31.364" viewBox="0 0 51.974 31.364">
  <g id="message" transform="translate(0 0)">
    <path id="Path_44078" data-name="Path 44078" d="M63.359,205.716l-.43.486L45.949,220.434,40.26,225.2a3.452,3.452,0,0,1-4.462,0l-5.69-4.768L12.941,206.04l-.484-.081a1.77,1.77,0,0,1,1.38-.658H62.221a1.767,1.767,0,0,1,1.138.415Zm0,0" transform="translate(-12.043 -205.301)" fill="#f0c419"/>
    <path id="Path_44079" data-name="Path 44079" d="M26.7,225.915l-.144.179L9.436,240.426h-.9V212.669a1.764,1.764,0,0,1,.414-1.137l.487.08Zm0,0" transform="translate(-8.535 -210.873)" fill="#f29c1f"/>
    <path id="Path_44080" data-name="Path 44080" d="M60.509,363.175v.009a1.8,1.8,0,0,1-1.792,1.8H10.327a1.8,1.8,0,0,1-1.792-1.8v-.009h.9l17.026-14.421.144-.18,5.69,4.768a3.452,3.452,0,0,0,4.462,0l5.69-4.768.144.18,17.026,14.421Zm0,0" transform="translate(-8.535 -333.622)" fill="#e57e25"/>
    <path id="Path_44081" data-name="Path 44081" d="M349.6,210.606v27.759h-.9l-17.124-14.332-.144-.179,17.079-14.144.433-.483A1.769,1.769,0,0,1,349.6,210.606Zm0,0" transform="translate(-297.629 -208.812)" fill="#f29c1f"/>
  </g>
</svg>
