<svg id="morning" xmlns="http://www.w3.org/2000/svg" width="31.49" height="27.369" viewBox="0 0 31.49 27.369">
  <path id="Path_105061" data-name="Path 105061" d="M.923,139.183c.523,0,.747.2,1.2.654a3.3,3.3,0,0,0,2.5,1.191,3.3,3.3,0,0,0,2.5-1.191c.619-.617.7-.554.943-.633.694-.12,1.005.179,1.461.633a3.226,3.226,0,0,0,5.007,0c.455-.453.678-.654,1.2-.654s.747.2,1.2.654a3.227,3.227,0,0,0,5.008,0c.455-.453.679-.654,1.2-.654s.747.2,1.2.654a3.227,3.227,0,0,0,5.008,0c.455-.453.679-.654,1.2-.654a.923.923,0,1,0,0-1.845,3.3,3.3,0,0,0-2.5,1.191c-.455.453-.679.654-1.2.654-.849,0-1.052-.663-1.9-1.276a10.149,10.149,0,1,0-18.424,0c-.844.606-1.058,1.276-1.9,1.276-.523,0-.747-.2-1.2-.654a3.3,3.3,0,0,0-2.5-1.191.923.923,0,0,0,0,1.845Zm6.519-5.535a8.3,8.3,0,1,1,15.742,3.691,3.269,3.269,0,0,0-2.532,1.191c-.455.453-.679.654-1.2.654s-.747-.2-1.2-.654a3.226,3.226,0,0,0-5.007,0c-.455.453-.678.654-1.2.654s-.747-.2-1.2-.654a3.255,3.255,0,0,0-2.531-1.191A8.3,8.3,0,0,1,7.442,133.648Z" transform="translate(0 -117.965)" fill="#2b78c8"/>
  <path id="Path_105062" data-name="Path 105062" d="M30.567,418.5a3.3,3.3,0,0,0-2.5,1.191c-.455.453-.679.654-1.2.654s-.747-.2-1.2-.654a3.227,3.227,0,0,0-5.008,0c-.455.453-.679.654-1.2.654s-.747-.2-1.2-.654a3.226,3.226,0,0,0-5.007,0c-.455.453-.678.654-1.2.654s-.747-.2-1.2-.654a3.226,3.226,0,0,0-5.007,0c-.455.453-.678.654-1.2.654s-.747-.2-1.2-.654a3.3,3.3,0,0,0-2.5-1.191.923.923,0,1,0,0,1.845c.523,0,.747.2,1.2.654a3.3,3.3,0,0,0,2.5,1.191A3.3,3.3,0,0,0,7.132,421c.455-.453.679-.654,1.2-.654s.747.2,1.2.654a3.226,3.226,0,0,0,5.007,0c.455-.453.678-.654,1.2-.654s.747.2,1.2.654a3.227,3.227,0,0,0,5.008,0c.455-.453.679-.654,1.2-.654s.747.2,1.2.654a3.227,3.227,0,0,0,5.008,0c.455-.453.679-.654,1.2-.654a.923.923,0,1,0,0-1.845Z" transform="translate(0 -394.821)" fill="#1e3f6c"/>
  <path id="Path_105063" data-name="Path 105063" d="M241.923,37.19a.923.923,0,0,0,.923-.923V34.423a.923.923,0,1,0-1.845,0v1.845A.923.923,0,0,0,241.923,37.19Z" transform="translate(-226.178 -33.5)" fill="#1e3f6c"/>
  <path id="Path_105064" data-name="Path 105064" d="M122.044,68.633a.923.923,0,0,0,1.6-.923l-.923-1.6a.923.923,0,0,0-1.6.923Z" transform="translate(-113.556 -63.674)" fill="#1e3f6c"/>
  <path id="Path_105065" data-name="Path 105065" d="M33.613,155.218c1.555.856,1.641,1.046,2.058,1.046a.924.924,0,0,0,.462-1.722l-1.6-.923a.923.923,0,0,0-.923,1.6Z" transform="translate(-31.112 -146.116)" fill="#1e3f6c"/>
  <path id="Path_105066" data-name="Path 105066" d="M1.923,275.345H3.768a.923.923,0,1,0,0-1.845H1.923a.923.923,0,1,0,0,1.845Z" transform="translate(-0.938 -258.739)" fill="#1e3f6c"/>
  <path id="Path_105067" data-name="Path 105067" d="M451,274.423a.923.923,0,0,0,.923.923h1.845a.923.923,0,0,0,0-1.845h-1.845A.923.923,0,0,0,451,274.423Z" transform="translate(-423.262 -258.739)" fill="#1e3f6c"/>
  <path id="Path_105068" data-name="Path 105068" d="M424.247,156.142l1.6-.923a.923.923,0,1,0-.923-1.6l-1.6.923a.923.923,0,1,0,.923,1.6Z" transform="translate(-396.855 -146.117)" fill="#1e3f6c"/>
  <path id="Path_105069" data-name="Path 105069" d="M346.459,68.971a.923.923,0,0,0,1.26-.338l.923-1.6a.923.923,0,1,0-1.6-.923l-.923,1.6A.923.923,0,0,0,346.459,68.971Z" transform="translate(-324.718 -63.674)" fill="#1e3f6c"/>
</svg>
