<svg xmlns="http://www.w3.org/2000/svg" width="18.934" height="22.032" viewBox="0 0 18.934 22.032">
  <g id="notification" transform="translate(-1269 -90)">
    <g id="Group_55521" data-name="Group 55521" transform="translate(41 57)">
      <path id="notification_2_" data-name="notification (2)" d="M18.073,17.041h-.861V11.016A7.759,7.759,0,0,0,11.7,3.6a2.5,2.5,0,1,0-4.475,0,7.759,7.759,0,0,0-5.508,7.416v6.024H.86a.861.861,0,0,0,0,1.721H5.254a4.138,4.138,0,0,0,4.041,3.27h.344a4.138,4.138,0,0,0,4.041-3.27h4.394a.861.861,0,1,0,0-1.721ZM8.692,2.5a.775.775,0,1,1,.775.775A.775.775,0,0,1,8.692,2.5Zm.947,17.815H9.295a2.414,2.414,0,0,1-2.251-1.549H11.89a2.414,2.414,0,0,1-2.251,1.549Zm-6.2-3.27V11.016a6.024,6.024,0,0,1,12.049,0v6.024Zm0,0" transform="translate(1228 33)" fill="#1e3f6c"/>
    </g>
  </g>
</svg>
