<svg xmlns="http://www.w3.org/2000/svg" width="13.48" height="17.036" viewBox="0 0 13.48 17.036">
  <path id="notification_white" d="M66.636,13.557a2.647,2.647,0,0,1-.8-1.1,12.674,12.674,0,0,1-.838-5.008c0-.006,0-.013,0-.019a4.834,4.834,0,0,0-2.845-4.384V1.9A1.9,1.9,0,0,0,60.253,0H60.1A1.9,1.9,0,0,0,58.2,1.9V3.051a4.834,4.834,0,0,0-2.846,4.4,12.673,12.673,0,0,1-.839,5.008,2.647,2.647,0,0,1-.8,1.1.485.485,0,0,0-.267.552.508.508,0,0,0,.5.39H57.6a2.57,2.57,0,0,0,5.139,0H66.4a.508.508,0,0,0,.5-.39A.485.485,0,0,0,66.636,13.557ZM59.2,1.9a.9.9,0,0,1,.9-.9h.157a.9.9,0,0,1,.9.9v.829a4.834,4.834,0,0,0-1.95,0V1.9Zm.975,14.138A1.575,1.575,0,0,1,58.6,14.5h3.142A1.575,1.575,0,0,1,60.174,16.036Zm2.01-2.537h-7.1a5.23,5.23,0,0,0,.262-.459,12.636,12.636,0,0,0,1.008-5.586,3.82,3.82,0,1,1,7.641,0q0,.009,0,.018A12.61,12.61,0,0,0,65,13.04a5.235,5.235,0,0,0,.262.459Z" transform="translate(-53.434)" fill="#fff"/>
</svg>
