<svg xmlns="http://www.w3.org/2000/svg" width="62" height="62" viewBox="0 0 62 62">
  <g id="on_going_bookings" transform="translate(-768 -192)">
    <circle id="_1" data-name="1" cx="31" cy="31" r="31" transform="translate(768 192)" fill="#f2f1f6"/>
    <g id="_30-appointment" data-name="30-appointment" transform="translate(779.738 184.477)">
      <g id="linear_color" data-name="linear color" transform="translate(5.262 25.523)">
        <path id="Path_105266" data-name="Path 105266" d="M33.393,28.425a.67.67,0,0,0-.67-.67H29.742a2.9,2.9,0,0,0-5.647,0H23.044a2.9,2.9,0,0,0-5.647,0H16.346a2.9,2.9,0,0,0-5.647,0H9.5a.675.675,0,0,0-.651.512L5.281,43a.67.67,0,0,0,.651.828h2.9v2.456a.67.67,0,0,0,.67.67H21.359a6.028,6.028,0,0,0,12.017-.523c0-.07.016-18.007.016-18.007ZM32.053,42.52a6.084,6.084,0,0,0-.893-.9V37.355a.67.67,0,1,0-1.34,0v3.432a5.978,5.978,0,0,0-1.528-.456l2.724-11.237h1.036ZM10.031,29.095H10.7a2.907,2.907,0,0,0,2.823,2.233.67.67,0,1,0,0-1.34,1.565,1.565,0,0,1-1.412-.893H17.4a2.907,2.907,0,0,0,2.823,2.233.67.67,0,1,0,0-1.34,1.565,1.565,0,0,1-1.412-.893h5.286a2.907,2.907,0,0,0,2.823,2.233.67.67,0,1,0,0-1.34,1.565,1.565,0,0,1-1.412-.893h4.132l-.758,3.126H9.273Zm16.887-2.233a1.565,1.565,0,0,1,1.412.893H25.507a1.565,1.565,0,0,1,1.412-.893Zm-6.7,0a1.565,1.565,0,0,1,1.412.893H18.809a1.565,1.565,0,0,1,1.412-.893Zm-6.7,0a1.565,1.565,0,0,1,1.412.893H12.111a1.565,1.565,0,0,1,1.412-.893Zm-4.575,6.7H28.556l-1.627,6.713a6.022,6.022,0,0,0-4.258,2.218H6.783Zm1.225,10.27H21.845a5.98,5.98,0,0,0-.486,1.786H10.174Zm17.846,7.1V50.3a.67.67,0,1,0-1.34,0v.621a4.7,4.7,0,0,1-3.97-3.97h.621a.67.67,0,1,0,0-1.34H22.71a4.7,4.7,0,0,1,3.97-3.97v.621a.67.67,0,1,0,1.34,0v-.621a4.7,4.7,0,0,1,3.97,3.97h-.621a.67.67,0,1,0,0,1.34h.621a4.7,4.7,0,0,1-3.97,3.97Z" transform="translate(-5.262 -25.523)" fill="#2b78c8"/>
        <path id="Path_105267" data-name="Path 105267" d="M249.935,190.861h1.786a.67.67,0,0,0,0-1.34h-1.786a.67.67,0,0,0,0,1.34Z" transform="translate(-235.646 -180.367)" fill="#2b78c8"/>
        <path id="Path_105268" data-name="Path 105268" d="M169.935,190.861h1.786a.67.67,0,0,0,0-1.34h-1.786a.67.67,0,0,0,0,1.34Z" transform="translate(-160.111 -180.367)" fill="#2b78c8"/>
        <path id="Path_105269" data-name="Path 105269" d="M89.935,190.861h1.786a.67.67,0,0,0,0-1.34H89.935a.67.67,0,1,0,0,1.34Z" transform="translate(-84.576 -180.367)" fill="#2b78c8"/>
        <path id="Path_105270" data-name="Path 105270" d="M329.935,190.861h1.786a.67.67,0,0,0,0-1.34h-1.786a.67.67,0,1,0,0,1.34Z" transform="translate(-311.181 -180.367)" fill="#2b78c8"/>
        <path id="Path_105271" data-name="Path 105271" d="M233.935,238.861h1.786a.67.67,0,1,0,0-1.34h-1.786a.67.67,0,1,0,0,1.34Z" transform="translate(-220.539 -225.688)" fill="#2b78c8"/>
        <path id="Path_105272" data-name="Path 105272" d="M153.935,238.861h1.786a.67.67,0,0,0,0-1.34h-1.786a.67.67,0,1,0,0,1.34Z" transform="translate(-145.004 -225.688)" fill="#2b78c8"/>
        <path id="Path_105273" data-name="Path 105273" d="M73.935,238.861h1.786a.67.67,0,0,0,0-1.34H73.935a.67.67,0,1,0,0,1.34Z" transform="translate(-69.469 -225.688)" fill="#2b78c8"/>
        <path id="Path_105274" data-name="Path 105274" d="M313.935,238.861h1.786a.67.67,0,0,0,0-1.34h-1.786a.67.67,0,1,0,0,1.34Z" transform="translate(-296.074 -225.688)" fill="#2b78c8"/>
        <path id="Path_105275" data-name="Path 105275" d="M225.935,286.861h1.786a.67.67,0,1,0,0-1.34h-1.786a.67.67,0,0,0,0,1.34Z" transform="translate(-212.986 -271.009)" fill="#2b78c8"/>
        <path id="Path_105276" data-name="Path 105276" d="M145.935,286.861h1.786a.67.67,0,0,0,0-1.34h-1.786a.67.67,0,1,0,0,1.34Z" transform="translate(-137.451 -271.009)" fill="#2b78c8"/>
        <path id="Path_105277" data-name="Path 105277" d="M68.391,286.191a.67.67,0,0,0-.67-.67H65.935a.67.67,0,1,0,0,1.34h1.786A.67.67,0,0,0,68.391,286.191Z" transform="translate(-61.916 -271.009)" fill="#2b78c8"/>
        <path id="Path_105278" data-name="Path 105278" d="M360.766,353.718l-1.445,1.445-1.354-.677a.67.67,0,0,0-.6,1.2l1.786.893a.67.67,0,0,0,.773-.125l1.786-1.786a.67.67,0,0,0-.947-.947Z" transform="translate(-337.365 -335.214)" fill="#2b78c8"/>
      </g>
    </g>
  </g>
</svg>
