<svg xmlns="http://www.w3.org/2000/svg" width="62" height="62" viewBox="0 0 62 62">
  <g id="ongoing" transform="translate(-772 -194)">
    <circle id="_1" data-name="1" cx="31" cy="31" r="31" transform="translate(772 194)" fill="#f2f1f6"/>
    <g id="download" transform="translate(784 206)">
      <g id="Group_59606" data-name="Group 59606" transform="translate(6 6)">
        <path id="Path_105343" data-name="Path 105343" d="M29.952,8.017H28.187V7.008a1.008,1.008,0,1,0-2.017,0V8.017H12.051V7.008a1.008,1.008,0,0,0-2.017,0V8.017H8.269A2.272,2.272,0,0,0,6,10.286v2.773H32.221V10.286A2.272,2.272,0,0,0,29.952,8.017Z" transform="translate(-6 -6)" fill="#2b78c8"/>
        <g id="Group_59607" data-name="Group 59607" transform="translate(-3 -0.77)">
          <path id="Path_105347" data-name="Path 105347" d="M181.031,260.408v2.472h1.53v-2.472a.768.768,0,0,1,.768-.768H185.8V258.11h-2.472a.768.768,0,0,1-.768-.768V254.87h-1.53v2.472a.768.768,0,0,1-.768.768H177.79v1.529h2.473A.768.768,0,0,1,181.031,260.408Z" transform="translate(-165.685 -240.908)" fill="#2b78c8"/>
          <path id="Path_105348" data-name="Path 105348" d="M0,189.173a2.566,2.566,0,0,0,2.57,2.557H23.65a2.566,2.566,0,0,0,2.57-2.557V174.59H0Zm7.569-8.035a.766.766,0,0,1,.768-.764h2.473v-2.459a.766.766,0,0,1,.768-.764h3.066a.766.766,0,0,1,.768.764v2.459h2.472a.766.766,0,0,1,.768.764v3.049a.766.766,0,0,1-.768.764H15.412v2.459a.766.766,0,0,1-.768.764H11.578a.766.766,0,0,1-.768-.764v-2.459H8.337a.766.766,0,0,1-.768-.764Z" transform="translate(3 -164.74)" fill="#2b78c8"/>
        </g>
      </g>
    </g>
  </g>
</svg>
