<svg xmlns="http://www.w3.org/2000/svg" width="21" height="15.563" viewBox="0 0 21 15.563">
  <g id="payment_active" transform="translate(3968 340)">
    <g id="Group_55973" data-name="Group 55973" transform="translate(-3954.536 -330.004)">
      <g id="Group_55972" data-name="Group 55972" transform="translate(0 0)">
        <path id="Path_104850" data-name="Path 104850" d="M278.167,258.482a1.775,1.775,0,0,0-1.995,0,1.755,1.755,0,0,0-.995-.305,1.78,1.78,0,0,0,0,3.561,1.755,1.755,0,0,0,.995-.305,1.781,1.781,0,1,0,1.995-2.95Zm-.4,1.99a.789.789,0,0,1-1.113.1.684.684,0,0,1-.1-.1.476.476,0,0,0-.379-.172.489.489,0,0,0-.379.177.77.77,0,0,1-.611.286.8.8,0,0,1-.8-.793.791.791,0,0,1,1.4-.507.493.493,0,0,0,.694.074.524.524,0,0,0,.074-.074.79.79,0,1,1,1.212,1.015Z" transform="translate(-273.4 -258.175)" fill="#1e3f6c"/>
      </g>
    </g>
    <g id="payment" transform="translate(-3968 -340)">
      <g id="Group_55974" data-name="Group 55974">
        <path id="Path_104851" data-name="Path 104851" d="M20.98,61.327c0-.044.02-.094.02-.143s-.02-.094-.02-.138V59.992a2.1,2.1,0,0,0-2.108-2.083h-.6v-.6A2.1,2.1,0,0,0,16.193,55.2H2.088A2.1,2.1,0,0,0,0,57.313v8.658a2.079,2.079,0,0,0,2.073,2.083h.586v.6a2.117,2.117,0,0,0,2.1,2.113h14.11A2.124,2.124,0,0,0,20.98,68.65V63.636c0-.044.02-.094.02-.138s-.02-.094-.02-.138ZM2.659,59.992v7.077H2.088a1.093,1.093,0,0,1-1.1-1.079V57.313a1.119,1.119,0,0,1,1.1-1.128H16.2a1.111,1.111,0,0,1,1.093,1.128v.6H4.762A2.091,2.091,0,0,0,2.659,59.992ZM19.995,68.65a1.133,1.133,0,0,1-1.123,1.128H4.762A1.126,1.126,0,0,1,3.644,68.65V63.966H19.995Zm0-5.669H3.644V61.7H19.995Zm0-2.265H3.644v-.724a1.107,1.107,0,0,1,1.118-1.1H18.877A1.108,1.108,0,0,1,20,59.992v.724Z" transform="translate(0 -55.2)" fill="#1e3f6c"/>
      </g>
    </g>
  </g>
</svg>
