<svg xmlns="http://www.w3.org/2000/svg" width="21" height="21" viewBox="0 0 21 21">
  <path id="report" d="M20.879,6.18,16.486.249a.615.615,0,0,0-.989,0L11.1,6.18a.615.615,0,0,0,.494.982H13.18v2.974a2.247,2.247,0,0,0-1.032-.25h-1.1a2.265,2.265,0,0,0-2.263,2.263V13.43a2.247,2.247,0,0,0-1.032-.25h-1.1a2.265,2.265,0,0,0-2.263,2.263v1.282a2.25,2.25,0,0,0-1.032-.25h-1.1A2.265,2.265,0,0,0,0,18.737v1.648A.615.615,0,0,0,.615,21H18.188a.615.615,0,0,0,.615-.615V7.161h1.582a.615.615,0,0,0,.494-.982ZM1.23,18.737A1.033,1.033,0,0,1,2.263,17.7h1.1a1.033,1.033,0,0,1,1.032,1.032V19.77H1.23Zm4.393,0V15.442A1.033,1.033,0,0,1,6.656,14.41h1.1a1.033,1.033,0,0,1,1.032,1.032V19.77H5.624Zm4.393-3.295v-3.3a1.033,1.033,0,0,1,1.032-1.032h1.1a1.033,1.033,0,0,1,1.032,1.032V19.77H10.017Zm8.171-9.511a.615.615,0,0,0-.615.615V19.77H14.41V6.546a.615.615,0,0,0-.615-.615H12.82l3.172-4.282,3.172,4.282Zm0,0" fill="#fff"/>
</svg>
