<svg xmlns="http://www.w3.org/2000/svg" width="62" height="62" viewBox="0 0 62 62">
  <g id="scheduled_bookings" transform="translate(-768 -192)">
    <circle id="_1" data-name="1" cx="31" cy="31" r="31" transform="translate(768 192)" fill="#f2f1f6"/>
    <g id="_1171977" data-name="1171977" transform="translate(786 210)">
      <path id="Path_105293" data-name="Path 105293" d="M25.04,15.182V2.39a.779.779,0,0,0-.779-.779H20.312V.779a.779.779,0,1,0-1.558,0V1.61H15.637V.779a.779.779,0,0,0-1.558,0V1.61H10.961V.779A.779.779,0,0,0,9.4.779V1.61H6.286V.779a.779.779,0,0,0-1.558,0V1.61H.779A.779.779,0,0,0,0,2.39V22.7a.779.779,0,0,0,.779.779H13.756a7.011,7.011,0,1,0,11.283-8.3ZM4.727,3.169v.779a.779.779,0,0,0,1.558,0V3.169H9.4v.779a.779.779,0,0,0,1.558,0V3.169h3.117v.779a.779.779,0,0,0,1.558,0V3.169h3.117v.779a.779.779,0,1,0,1.558,0V3.169h3.169V6.286H1.558V3.169ZM1.558,21.923V7.844H23.481v5.912a7,7,0,0,0-9.78,2.016.775.775,0,0,0-.35-.084H11.793a.779.779,0,1,0,0,1.558h1.18a6.955,6.955,0,0,0-.358,1.558h-.823a.779.779,0,1,0,0,1.558h.823a6.944,6.944,0,0,0,.358,1.558ZM19.585,25.04a5.455,5.455,0,1,1,5.455-5.455A5.461,5.461,0,0,1,19.585,25.04Zm0,0" fill="#2b78c8"/>
      <path id="Path_105294" data-name="Path 105294" d="M365.9,305.117h-2.338v-2.338a.779.779,0,1,0-1.558,0V305.9a.779.779,0,0,0,.779.779H365.9a.779.779,0,0,0,0-1.558Zm0,0" transform="translate(-343.194 -286.311)" fill="#2b78c8"/>
      <path id="Path_105295" data-name="Path 105295" d="M93.338,182H91.779a.779.779,0,1,0,0,1.558h1.558a.779.779,0,1,0,0-1.558Zm0,0" transform="translate(-86.273 -172.545)" fill="#2b78c8"/>
      <path id="Path_105296" data-name="Path 105296" d="M93.338,242H91.779a.779.779,0,0,0,0,1.559h1.558a.779.779,0,0,0,0-1.559Zm0,0" transform="translate(-86.273 -229.428)" fill="#2b78c8"/>
      <path id="Path_105297" data-name="Path 105297" d="M93.338,302H91.779a.779.779,0,1,0,0,1.558h1.558a.779.779,0,1,0,0-1.558Zm0,0" transform="translate(-86.273 -286.311)" fill="#2b78c8"/>
      <path id="Path_105298" data-name="Path 105298" d="M212.779,183.558h1.558a.779.779,0,1,0,0-1.558h-1.558a.779.779,0,0,0,0,1.558Zm0,0" transform="translate(-200.987 -172.545)" fill="#2b78c8"/>
      <path id="Path_105299" data-name="Path 105299" d="M212.779,243.559h1.558a.779.779,0,1,0,0-1.559h-1.558a.779.779,0,0,0,0,1.559Zm0,0" transform="translate(-200.987 -229.428)" fill="#2b78c8"/>
      <path id="Path_105300" data-name="Path 105300" d="M93.338,362H91.779a.779.779,0,1,0,0,1.558h1.558a.779.779,0,1,0,0-1.558Zm0,0" transform="translate(-86.273 -343.194)" fill="#2b78c8"/>
      <path id="Path_105301" data-name="Path 105301" d="M332.779,183.558h1.559a.779.779,0,0,0,0-1.558h-1.559a.779.779,0,0,0,0,1.558Zm0,0" transform="translate(-314.753 -172.545)" fill="#2b78c8"/>
    </g>
  </g>
</svg>
