<svg id="send" xmlns="http://www.w3.org/2000/svg" width="29.757" height="25.864" viewBox="0 0 29.757 25.864">
  <path id="Path_71613" data-name="Path 71613" d="M29.737,34.548a.872.872,0,0,0-1.163-1L.562,44.244a.872.872,0,0,0,0,1.628l7.869,3.039v9.573a.872.872,0,0,0,1.65.392l3.255-6.459,7.943,5.894a.872.872,0,0,0,1.353-.446c7.416-24.314,7.1-23.257,7.108-23.318Zm-6.915,3.064L9.176,47.331,3.3,45.063ZM10.172,48.762l11.895-8.471c-10.235,10.8-9.7,10.229-9.745,10.289-.066.089.115-.259-2.149,4.236Zm11.15,7.413-6.991-5.189L26.972,37.651Z" transform="translate(-0.001 -33.492)" fill="#1e3f6c"/>
</svg>
