<svg id="setting" xmlns="http://www.w3.org/2000/svg" width="23.03" height="23.03" viewBox="0 0 23.03 23.03">
  <circle id="Ellipse_1140" data-name="Ellipse 1140" cx="5.5" cy="5.5" r="5.5" transform="translate(6 6.03)" fill="#fff"/>
  <path id="Path_105021" data-name="Path 105021" d="M12.35,23.03H10.68a1.677,1.677,0,0,1-1.673-1.455L8.761,19.7a8.355,8.355,0,0,1-1.091-.45L6.177,20.4a1.681,1.681,0,0,1-2.215-.149l-1.179-1.18a1.682,1.682,0,0,1-.147-2.216L3.782,15.36a8.278,8.278,0,0,1-.45-1.091l-1.87-.246A1.678,1.678,0,0,1,0,12.35V10.68A1.677,1.677,0,0,1,1.455,9.008l1.876-.247a8.355,8.355,0,0,1,.45-1.091L2.634,6.177a1.683,1.683,0,0,1,.149-2.215l1.18-1.179A1.682,1.682,0,0,1,6.18,2.636L7.67,3.781a8.3,8.3,0,0,1,1.091-.45l.246-1.87A1.678,1.678,0,0,1,10.68,0h1.67a1.677,1.677,0,0,1,1.673,1.455l.247,1.877a8.355,8.355,0,0,1,1.091.45l1.493-1.147a1.682,1.682,0,0,1,2.215.149l1.179,1.179a1.682,1.682,0,0,1,.147,2.216L19.249,7.67a8.278,8.278,0,0,1,.45,1.091l1.87.246A1.678,1.678,0,0,1,23.03,10.68v1.67a1.677,1.677,0,0,1-1.455,1.673l-1.877.247a8.355,8.355,0,0,1-.45,1.091L20.4,16.853a1.683,1.683,0,0,1-.149,2.215l-1.179,1.179a1.685,1.685,0,0,1-2.216.147L15.36,19.249a8.278,8.278,0,0,1-1.091.45l-.246,1.87A1.678,1.678,0,0,1,12.35,23.03ZM7.6,17.676a.722.722,0,0,1,.36.1,6.869,6.869,0,0,0,1.641.677.722.722,0,0,1,.527.6l.307,2.332a.244.244,0,0,0,.246.209h1.67a.244.244,0,0,0,.247-.216L12.9,19.05a.718.718,0,0,1,.527-.6,6.853,6.853,0,0,0,1.641-.677.721.721,0,0,1,.8.053l1.862,1.43a.235.235,0,0,0,.319-.024l1.18-1.18a.236.236,0,0,0,.026-.318l-1.432-1.864a.719.719,0,0,1-.053-.8,6.869,6.869,0,0,0,.677-1.641.722.722,0,0,1,.6-.527l2.332-.307a.244.244,0,0,0,.209-.246V10.68a.244.244,0,0,0-.216-.247l-2.325-.306a.718.718,0,0,1-.6-.527,6.853,6.853,0,0,0-.677-1.641.723.723,0,0,1,.053-.8L19.253,5.3a.236.236,0,0,0-.024-.319L18.049,3.8a.235.235,0,0,0-.317-.027L15.869,5.206a.723.723,0,0,1-.8.053,6.869,6.869,0,0,0-1.641-.677.722.722,0,0,1-.527-.6L12.6,1.649a.242.242,0,0,0-.246-.209H10.68a.244.244,0,0,0-.247.216L10.128,3.98a.718.718,0,0,1-.527.6,6.853,6.853,0,0,0-1.641.677.725.725,0,0,1-.8-.053L5.3,3.776a.235.235,0,0,0-.319.024L3.8,4.98a.236.236,0,0,0-.026.318L5.206,7.161a.721.721,0,0,1,.053.8A6.869,6.869,0,0,0,4.581,9.6a.722.722,0,0,1-.6.527l-2.332.307a.244.244,0,0,0-.209.247v1.67a.244.244,0,0,0,.216.247L3.98,12.9a.718.718,0,0,1,.6.527,6.853,6.853,0,0,0,.677,1.641.723.723,0,0,1-.053.8L3.776,17.73a.236.236,0,0,0,.024.319l1.18,1.18a.236.236,0,0,0,.318.026l1.864-1.432a.723.723,0,0,1,.439-.148Z" fill="#1e3f6c"/>
  <path id="Path_105022" data-name="Path 105022" d="M11.8,16.6a4.8,4.8,0,1,1,4.8-4.8A4.8,4.8,0,0,1,11.8,16.6Zm0-8.157A3.359,3.359,0,1,0,15.157,11.8,3.362,3.362,0,0,0,11.8,8.439Z" transform="translate(-0.283 -0.283)" fill="#1e3f6c"/>
</svg>
