<svg xmlns="http://www.w3.org/2000/svg" width="26.189" height="28.315" viewBox="0 0 26.189 28.315">
  <g id="share_icon" transform="translate(-46.7 -9.9)">
    <g id="Group_56574" data-name="Group 56574" transform="translate(46.7 9.9)">
      <g id="Group_56573" data-name="Group 56573" transform="translate(0 0)">
        <path id="Path_71436" data-name="Path 71436" d="M66.182,18.361a4.429,4.429,0,0,0,4.856.948,4.426,4.426,0,0,0,1.407-.948,4.429,4.429,0,0,0,.948-4.856,4.426,4.426,0,0,0-.948-1.407,4.429,4.429,0,0,0-4.856-.948,4.426,4.426,0,0,0-1.407.948,4.428,4.428,0,0,0-1.3,3.132,4.317,4.317,0,0,0,.176,1.234l-9.7,5.573c-.066-.075-.133-.147-.2-.217a4.429,4.429,0,0,0-4.856-.948,4.426,4.426,0,0,0-1.407.948,4.429,4.429,0,0,0-.948,4.856,4.426,4.426,0,0,0,.948,1.407,4.429,4.429,0,0,0,4.856.948,4.426,4.426,0,0,0,1.407-.948c.072-.072.142-.147.208-.222l9.693,5.55a4.43,4.43,0,1,0,1.124-1.9c-.029.029-.055.055-.081.084L56.331,26a4.439,4.439,0,0,0,0-2.1L66.1,18.283Zm1.843,14.332a2.332,2.332,0,1,1-1.043,1.944c0-.043,0-.084,0-.127A2.315,2.315,0,0,1,68.025,32.693Zm-16-5.411a2.335,2.335,0,1,1,1.45-.506A2.33,2.33,0,0,1,52.029,27.282ZM66.979,15.229a2.31,2.31,0,1,1,0,.127C66.982,15.316,66.979,15.272,66.979,15.229Z" transform="translate(-47.574 -10.774)" fill="#1e3f6c"/>
        <path id="Path_71437" data-name="Path 71437" d="M68.44,38.215a4.451,4.451,0,0,1-4.1-2.719,4.394,4.394,0,0,1-.35-1.733,4.526,4.526,0,0,1,.168-1.216L54.5,27.015c-.064.072-.13.142-.2.208a4.453,4.453,0,1,1-4.882-7.251,4.394,4.394,0,0,1,1.733-.35,4.442,4.442,0,0,1,3.149,1.3c.064.064.13.133.191.2l9.664-5.553A4.453,4.453,0,0,1,66.7,10.25a4.473,4.473,0,0,1,3.467,0,4.456,4.456,0,0,1,2.369,2.369,4.472,4.472,0,0,1,0,3.467,4.456,4.456,0,0,1-2.369,2.369,4.394,4.394,0,0,1-1.733.35,4.442,4.442,0,0,1-3.149-1.3c-.023-.023-.043-.043-.064-.066l-9.742,5.6a4.493,4.493,0,0,1,0,2.074l9.736,5.576.069-.069a4.456,4.456,0,1,1,3.152,7.6ZM54.486,26.954l.017.009,9.71,5.561-.006.017a4.4,4.4,0,1,0,1.115-1.892c-.029.029-.055.055-.081.084l-.014.014-.017-.009-9.782-5.6.006-.017a4.323,4.323,0,0,0,.124-1.04,4.542,4.542,0,0,0-.124-1.046l-.006-.017L55.445,23l9.791-5.625.014.014.078.078a4.394,4.394,0,1,0-1.115-1.887l.006.017-9.736,5.59-.014-.014c-.066-.075-.133-.147-.2-.217a4.405,4.405,0,0,0-7.171,4.83,4.42,4.42,0,0,0,.942,1.4,4.4,4.4,0,0,0,6.229,0c.069-.069.139-.144.205-.22ZM68.44,36.121a2.36,2.36,0,0,1-2.357-2.357c0-.04,0-.084,0-.127A2.371,2.371,0,0,1,67.137,31.8a2.357,2.357,0,1,1,1.3,4.322Zm0-4.666a2.292,2.292,0,0,0-1.274.384,2.322,2.322,0,0,0-1.031,1.8c0,.043,0,.084,0,.124a2.308,2.308,0,1,0,2.308-2.308ZM51.155,26.431a2.357,2.357,0,0,1,0-4.715,2.357,2.357,0,0,1,0,4.715Zm0-4.663a2.308,2.308,0,0,0,0,4.617,2.308,2.308,0,0,0,0-4.617ZM68.44,16.712a2.357,2.357,0,0,1-2.352-2.227c0-.046,0-.09,0-.13a2.357,2.357,0,1,1,2.355,2.357Zm0-4.666a2.311,2.311,0,0,0-2.308,2.308c0,.04,0,.084,0,.127a2.309,2.309,0,1,0,2.305-2.435Z" transform="translate(-46.7 -9.9)" fill="#1e3f6c"/>
      </g>
    </g>
  </g>
</svg>
