<svg id="skype" xmlns="http://www.w3.org/2000/svg" width="52.404" height="52.404" viewBox="0 0 52.404 52.404">
  <rect id="Rectangle_2201" data-name="Rectangle 2201" width="52.404" height="52.404" rx="11" fill="#15ace5"/>
  <path id="Path_44076" data-name="Path 44076" d="M115.025,94.874A16.7,16.7,0,0,0,95.439,75.288,9.632,9.632,0,0,0,82.264,88.463a16.7,16.7,0,0,0,19.586,19.586,9.632,9.632,0,0,0,13.175-13.175ZM98.962,103.13c-5.93,0-8.9-2.224-9.808-5.018s1.083-3.592,1.711-3.65A2.181,2.181,0,0,1,93.2,95.717a5.531,5.531,0,0,0,4.562,3.878c2.851.285,4.733-1.026,5.3-2.4s-.456-3.25-4.847-3.878-8.953-2.566-8.953-6.957,5.018-6.159,9.808-6.159,7.218,2.705,7.755,3.764c.665,1.312.437,3.5-1.14,3.878-1.654.4-2.509-.513-3.707-2.737-1.238-2.3-5.645-1.711-7.128-.4s-1.083,3.193,5.075,4.391,8.439,3.421,8.439,6.9S104.892,103.13,98.962,103.13Z" transform="translate(-71.33 -65.303)" fill="#fff"/>
</svg>
