<svg id="smile" xmlns="http://www.w3.org/2000/svg" width="25.864" height="25.864" viewBox="0 0 25.864 25.864">
  <path id="Path_2642" data-name="Path 2642" d="M22.081,3.784a12.938,12.938,0,1,0,0,18.3A12.952,12.952,0,0,0,22.081,3.784ZM20.669,20.669a10.942,10.942,0,1,1,0-15.475A10.955,10.955,0,0,1,20.669,20.669ZM8.106,9.43a1.512,1.512,0,1,1,1.512,1.512A1.512,1.512,0,0,1,8.106,9.43Zm6.857,0a1.512,1.512,0,1,1,1.513,1.512A1.513,1.513,0,0,1,14.963,9.43Zm3.575,6.193a6.037,6.037,0,0,1-5.591,3.567,6,6,0,0,1-5.624-3.586.732.732,0,1,1,1.351-.561,4.538,4.538,0,0,0,4.273,2.683,4.575,4.575,0,0,0,4.248-2.685.732.732,0,0,1,1.343.581Z" transform="translate(0 0)" fill="#1e3f6c"/>
</svg>
