<svg xmlns="http://www.w3.org/2000/svg" width="21" height="20.125" viewBox="0 0 21 20.125">
  <path id="star_dashboard" d="M4.7,20.617a1.118,1.118,0,0,1-1.088-1.365L4.964,13.3.383,9.283A1.117,1.117,0,0,1,1.015,7.33l6.062-.55,2.4-5.609a1.116,1.116,0,0,1,2.053,0l2.4,5.61,6.061.55a1.117,1.117,0,0,1,.634,1.953L16.038,13.3l1.351,5.951a1.116,1.116,0,0,1-1.661,1.206L10.5,17.333,5.273,20.459a1.119,1.119,0,0,1-.572.158Zm5.8-4.63a1.119,1.119,0,0,1,.572.158L16.006,19.1l-1.275-5.617a1.116,1.116,0,0,1,.354-1.088L19.411,8.6l-5.724-.52A1.115,1.115,0,0,1,12.76,7.4L10.5,2.109,8.238,7.4a1.112,1.112,0,0,1-.925.674L1.589,8.6,5.915,12.39a1.114,1.114,0,0,1,.354,1.089L4.995,19.1l4.933-2.95a1.118,1.118,0,0,1,.572-.158Zm-3.469-9.1v0Zm6.937,0v0Zm0,0" transform="translate(0 -0.492)" fill="#fff"/>
</svg>
