<svg id="subscription_active" xmlns="http://www.w3.org/2000/svg" width="21" height="17.64" viewBox="0 0 21 17.64">
  <path id="Path_104853" data-name="Path 104853" d="M21.16,3.1h-4.2V2.26A1.26,1.26,0,0,0,15.7,1H7.3A1.26,1.26,0,0,0,6.04,2.26V3.1H1.84A.84.84,0,0,0,1,3.94V15.7a.84.84,0,0,0,.84.84h4.2v.84A1.26,1.26,0,0,0,7.3,18.64h8.4a1.26,1.26,0,0,0,1.26-1.26v-.84h4.2A.84.84,0,0,0,22,15.7V3.94A.84.84,0,0,0,21.16,3.1Zm-4.2,10.08h1.47a.21.21,0,0,1,0,.42H16.96ZM6.04,13.6H4.57a.21.21,0,0,1,0-.42H6.04Zm-4.2,2.1V3.94h4.2V5.2H3.94a.42.42,0,1,0,0,.84h2.1v.84H4.78a.42.42,0,0,0,0,.84H6.04v4.62H4.57a1.05,1.05,0,0,0,0,2.1H6.04V15.7Zm14.28,1.68a.42.42,0,0,1-.42.42H7.3a.42.42,0,0,1-.42-.42V2.26a.42.42,0,0,1,.42-.42h8.4a.42.42,0,0,1,.42.42Zm.84-1.68V14.44h1.47a1.05,1.05,0,0,0,0-2.1H16.96V7.72h1.26a.42.42,0,1,0,0-.84H16.96V6.04h2.1a.42.42,0,0,0,0-.84h-2.1V3.94h4.2V15.7Z" transform="translate(-1 -1)" fill="#1e3f6c"/>
  <path id="Path_104854" data-name="Path 104854" d="M24.3,8H18.42a.42.42,0,0,0,0,.84H24.3a.42.42,0,1,0,0-.84Z" transform="translate(-10.86 -5.06)" fill="#1e3f6c"/>
  <path id="Path_104855" data-name="Path 104855" d="M23.62,30H20.26a1.26,1.26,0,0,0,0,2.52h3.36a1.26,1.26,0,1,0,0-2.52Zm0,1.68H20.26a.42.42,0,0,1,0-.84h3.36a.42.42,0,1,1,0,.84Z" transform="translate(-11.44 -17.82)" fill="#1e3f6c"/>
  <path id="Path_104856" data-name="Path 104856" d="M25.04,12.42a.42.42,0,0,0-.42-.42h-4.2a.42.42,0,1,0,0,.84h4.2A.42.42,0,0,0,25.04,12.42Z" transform="translate(-12.02 -7.38)" fill="#1e3f6c"/>
  <path id="Path_104857" data-name="Path 104857" d="M24.94,20H22.42a.42.42,0,0,0,0,.84h2.52a.42.42,0,1,0,0-.84Z" transform="translate(-13.18 -12.02)" fill="#1e3f6c"/>
  <path id="Path_104858" data-name="Path 104858" d="M24.94,24H22.42a.42.42,0,0,0,0,.84h2.52a.42.42,0,1,0,0-.84Z" transform="translate(-13.18 -14.34)" fill="#1e3f6c"/>
</svg>
