<svg xmlns="http://www.w3.org/2000/svg" width="40" height="40" viewBox="0 0 40 40">
  <g id="support" transform="translate(-1242.302 -193.302)">
    <circle id="Ellipse_1246" data-name="Ellipse 1246" cx="20" cy="20" r="20" transform="translate(1242.302 193.302)" fill="#f5f5f5"/>
    <path id="_1716995" data-name="1716995" d="M23.1,22.078a2.027,2.027,0,0,0-1.235-1.867l-5.754-2.448V16.329a5.367,5.367,0,0,0,1.123-2.654h1.176a2.032,2.032,0,0,0,2.03-2.03V8.735a2.033,2.033,0,0,0-1.748-2.01C18.542,2.322,16.08,0,11.547,0S4.552,2.322,4.406,6.725a2.033,2.033,0,0,0-1.748,2.01v2.91a2.032,2.032,0,0,0,2.03,2.03H5.865a5.366,5.366,0,0,0,1.123,2.654v1.435L1.234,20.211A2.027,2.027,0,0,0,0,22.078v.34a.677.677,0,0,0,.677.677H22.419a.677.677,0,0,0,.677-.677Zm-8.341-3.84a4.157,4.157,0,0,1-.932,2.669,3.02,3.02,0,0,1-2.275.836,3.023,3.023,0,0,1-2.269-.83,4.127,4.127,0,0,1-.937-2.675c0-.009,0-.018,0-.027v-.67a6.153,6.153,0,0,0,6.412,0v.67c0,.009,0,.018,0,.027Zm1.171-5.6-1.287.858a2.473,2.473,0,0,1-1.376.417H12.117a.677.677,0,1,0,0,1.353h1.144a3.821,3.821,0,0,0,2.127-.644l.259-.173a4.268,4.268,0,0,1-4.1,2.641,4.175,4.175,0,0,1-4.378-4.15V7.453c.267-1.24.653-2.028,1.119-2.281s1.138.01,1.79.263a4.2,4.2,0,0,0,1.469.384,4.076,4.076,0,0,0,1.461-.388c.653-.259,1.269-.5,1.726-.266.333.174.807.714,1.191,2.3Zm3.158-3.9v2.91a.677.677,0,0,1-.677.677H17.278V8.058h1.128A.677.677,0,0,1,19.083,8.735ZM6.966,3.01c.937-1.1,2.478-1.658,4.581-1.658s3.644.558,4.581,1.658a5.933,5.933,0,0,1,1.2,3.695h-.208a4.088,4.088,0,0,0-1.766-2.74,3.317,3.317,0,0,0-2.851.208,3.4,3.4,0,0,1-.962.292,3.548,3.548,0,0,1-.978-.292,3.383,3.383,0,0,0-2.926-.191A4.037,4.037,0,0,0,5.956,6.705h-.2a5.932,5.932,0,0,1,1.2-3.695ZM4.012,11.645V8.735a.677.677,0,0,1,.677-.677H5.816v4.263H4.688a.677.677,0,0,1-.677-.677ZM1.764,21.456l5.3-2.255A5.018,5.018,0,0,0,8.2,21.742H1.442a.675.675,0,0,1,.322-.286Zm13.128.286A5.018,5.018,0,0,0,16.029,19.2l5.3,2.255a.676.676,0,0,1,.322.286Zm0,0" transform="translate(1250.303 201.303)" fill="#1e3f6c"/>
  </g>
</svg>
