<svg xmlns="http://www.w3.org/2000/svg" width="40" height="40" viewBox="0 0 40 40">
  <g id="terms" transform="translate(-1242.302 -193.302)">
    <circle id="Ellipse_1246" data-name="Ellipse 1246" cx="20" cy="20" r="20" transform="translate(1242.302 193.302)" fill="#f5f5f5"/>
    <g id="_1819880" data-name="1819880" transform="translate(1251.302 202.303)">
      <path id="Path_105225" data-name="Path 105225" d="M66.3,98.637H62.41a.652.652,0,1,0,0,1.3H66.3a.652.652,0,0,0,0-1.3Zm0,0" transform="translate(-59.072 -94.349)" fill="#1e3f6c"/>
      <path id="Path_105226" data-name="Path 105226" d="M66.3,158.641H62.41a.652.652,0,0,0,0,1.3H66.3a.652.652,0,0,0,0-1.3Zm0,0" transform="translate(-59.072 -151.744)" fill="#1e3f6c"/>
      <path id="Path_105227" data-name="Path 105227" d="M66.3,218.645H62.41a.652.652,0,1,0,0,1.3H66.3a.652.652,0,1,0,0-1.3Zm0,0" transform="translate(-59.072 -209.139)" fill="#1e3f6c"/>
      <path id="Path_105228" data-name="Path 105228" d="M66.3,278.648H62.41a.652.652,0,1,0,0,1.3H66.3a.652.652,0,1,0,0-1.3Zm0,0" transform="translate(-59.072 -266.533)" fill="#1e3f6c"/>
      <path id="Path_105229" data-name="Path 105229" d="M66.3,339.656H62.41a.652.652,0,1,0,0,1.3H66.3a.652.652,0,0,0,0-1.3Zm0,0" transform="translate(-59.072 -324.888)" fill="#1e3f6c"/>
      <path id="Path_105230" data-name="Path 105230" d="M202.308,99.941H206.2a.652.652,0,0,0,0-1.3h-3.893a.652.652,0,0,0,0,1.3Zm0,0" transform="translate(-192.888 -94.349)" fill="#1e3f6c"/>
      <path id="Path_105231" data-name="Path 105231" d="M202.308,159.945H206.2a.652.652,0,0,0,0-1.3h-3.893a.652.652,0,0,0,0,1.3Zm0,0" transform="translate(-192.888 -151.744)" fill="#1e3f6c"/>
      <path id="Path_105232" data-name="Path 105232" d="M204.835,219.3a.652.652,0,0,0-.652-.652h-1.875a.652.652,0,1,0,0,1.3h1.875A.652.652,0,0,0,204.835,219.3Zm0,0" transform="translate(-192.888 -209.139)" fill="#1e3f6c"/>
      <path id="Path_105233" data-name="Path 105233" d="M314.1,342.831a.652.652,0,0,0-.917.1l-1.68,2.094-1.04-.753a.652.652,0,1,0-.765,1.056l1.543,1.118a.652.652,0,0,0,.891-.12l2.069-2.578A.652.652,0,0,0,314.1,342.831Zm0,0" transform="translate(-295.978 -327.788)" fill="#1e3f6c"/>
      <path id="Path_105234" data-name="Path 105234" d="M19.774,13.041a5.379,5.379,0,0,0-3.124-1.57V2.626A2.63,2.63,0,0,0,14.024,0H2.627A2.63,2.63,0,0,0,0,2.626V17.734a2.63,2.63,0,0,0,2.627,2.627h9.166a5.369,5.369,0,0,0,4.119,1.9,5.421,5.421,0,0,0,3.862-9.22ZM1.3,17.734V2.626A1.324,1.324,0,0,1,2.627,1.3h11.4a1.324,1.324,0,0,1,1.322,1.322V11.45a5.424,5.424,0,0,0-4.378,7.606H2.627A1.324,1.324,0,0,1,1.3,17.734Zm14.608,3.223a4.116,4.116,0,0,1,0-8.232h.074a4.116,4.116,0,0,1-.074,8.231Zm0,0" transform="translate(0)" fill="#1e3f6c"/>
    </g>
  </g>
</svg>
