<svg height='300px' width='300px'  fill="#fff" xmlns="http://www.w3.org/2000/svg" viewBox="0 0 64 64" x="0px" y="0px"><title>Finance 1</title><path d="M13.07,15.77l-.16.14a1.07,1.07,0,0,0-.14.16,26.94,26.94,0,0,0,0,37.86,1.07,1.07,0,0,0,.14.16l.16.14a26.94,26.94,0,0,0,37.86,0l.16-.14a1.07,1.07,0,0,0,.14-.16,26.94,26.94,0,0,0,0-37.86,1.07,1.07,0,0,0-.14-.16l-.16-.14A27,27,0,0,0,34,8.08V6h2a2,2,0,0,0,0-4H28a2,2,0,0,0,0,4h2V8.08A27,27,0,0,0,13.07,15.77Zm32.19,6a2,2,0,0,0,2.82,0l1.53-1.52A22.9,22.9,0,0,1,54.91,33H52.75a2,2,0,0,0,0,4h2.16a22.9,22.9,0,0,1-5.3,12.78l-1.53-1.52a2,2,0,0,0-2.82,2.82l1.52,1.53A22.9,22.9,0,0,1,34,57.91V55.75a2,2,0,0,0-4,0v2.16a22.9,22.9,0,0,1-12.78-5.3l1.52-1.53a2,2,0,0,0-2.82-2.82l-1.53,1.52A22.9,22.9,0,0,1,9.09,37h2.16a2,2,0,0,0,0-4H9.09a22.9,22.9,0,0,1,5.3-12.78l1.53,1.52a2,2,0,0,0,2.82-2.82l-1.52-1.53A22.9,22.9,0,0,1,30,12.09v2.16a2,2,0,0,0,4,0V12.09a22.9,22.9,0,0,1,12.78,5.3l-1.52,1.53A2,2,0,0,0,45.26,21.74Z"></path><path d="M35.73,31a2,2,0,0,0,4,0,6,6,0,0,0-5.73-6v-.13a2,2,0,0,0-4,0v.13A6,6,0,0,0,30,37v3.95a2,2,0,0,1-1.73-2,2,2,0,0,0-4,0A6,6,0,0,0,30,45v.13a2,2,0,0,0,4,0V45A6,6,0,0,0,34,33V29.06A2,2,0,0,1,35.73,31ZM34,40.94V37a2,2,0,0,1,0,3.91ZM30,29.06V33a2,2,0,0,1,0-3.91Z"></path></svg>