<svg height='300px' width='300px'  fill="#367fcb" xmlns="http://www.w3.org/2000/svg" xmlns:xlink="http://www.w3.org/1999/xlink" version="1.1" x="0px" y="0px" viewBox="0 0 100 100" enable-background="new 0 0 100 100" xml:space="preserve"><path d="M45,42.267h-6.667C36.493,42.267,35,43.759,35,45.6v3.333c0,1.841,1.493,3.333,3.333,3.333H45  c1.841,0,3.333-1.492,3.333-3.333V45.6C48.333,43.759,46.841,42.267,45,42.267z"></path><path d="M61.667,42.267H55c-1.841,0-3.333,1.493-3.333,3.333v3.333c0,1.841,1.492,3.333,3.333,3.333h6.667  c1.841,0,3.333-1.492,3.333-3.333V45.6C65,43.759,63.508,42.267,61.667,42.267z"></path><path d="M78.333,42.267h-6.666c-1.841,0-3.334,1.493-3.334,3.333v3.333c0,1.841,1.493,3.333,3.334,3.333h6.666  c1.841,0,3.334-1.492,3.334-3.333V45.6C81.667,43.759,80.174,42.267,78.333,42.267z"></path><path d="M28.333,56.667h-6.667c-1.841,0-3.333,1.492-3.333,3.333v3.333c0,1.841,1.492,3.334,3.333,3.334h6.667  c1.841,0,3.333-1.493,3.333-3.334V60C31.667,58.159,30.174,56.667,28.333,56.667z"></path><path d="M45,56.667h-6.667C36.493,56.667,35,58.159,35,60v3.333c0,1.841,1.493,3.334,3.333,3.334H45  c1.841,0,3.333-1.493,3.333-3.334V60C48.333,58.159,46.841,56.667,45,56.667z"></path><path d="M61.667,56.667H55c-1.841,0-3.333,1.492-3.333,3.333v3.333c0,1.841,1.492,3.334,3.333,3.334h6.667  c1.841,0,3.333-1.493,3.333-3.334V60C65,58.159,63.508,56.667,61.667,56.667z"></path><path d="M78.333,56.667h-6.666c-1.841,0-3.334,1.492-3.334,3.333v3.333c0,1.841,1.493,3.334,3.334,3.334h6.666  c1.841,0,3.334-1.493,3.334-3.334V60C81.667,58.159,80.174,56.667,78.333,56.667z"></path><path d="M28.333,71.066h-6.667c-1.841,0-3.333,1.493-3.333,3.334v3.333c0,1.841,1.492,3.333,3.333,3.333h6.667  c1.841,0,3.333-1.492,3.333-3.333V74.4C31.667,72.56,30.174,71.066,28.333,71.066z"></path><path d="M45,71.066h-6.667C36.493,71.066,35,72.56,35,74.4v3.333c0,1.841,1.493,3.333,3.333,3.333H45  c1.841,0,3.333-1.492,3.333-3.333V74.4C48.333,72.56,46.841,71.066,45,71.066z"></path><path d="M61.667,71.066H55c-1.841,0-3.333,1.493-3.333,3.334v3.333c0,1.841,1.492,3.333,3.333,3.333h6.667  c1.841,0,3.333-1.492,3.333-3.333V74.4C65,72.56,63.508,71.066,61.667,71.066z"></path><path d="M85,15.6h-4.167v5c0,4.135-3.364,7.5-7.5,7.5c-4.135,0-7.5-3.365-7.5-7.5v-5H57.5v5c0,4.135-3.364,7.5-7.5,7.5  c-4.135,0-7.5-3.365-7.5-7.5v-5h-8.333v5c0,4.135-3.364,7.5-7.5,7.5c-4.135,0-7.5-3.365-7.5-7.5v-5H15c-5.514,0-10,4.486-10,10v58.8  c0,5.514,4.486,10,10,10h70c5.514,0,10-4.486,10-10V25.6C95,20.086,90.514,15.6,85,15.6z M88.333,84.4  c0,1.838-1.495,3.333-3.333,3.333H15c-1.838,0-3.333-1.495-3.333-3.333V38.933c0-1.841,1.493-3.333,3.333-3.333h70  c1.841,0,3.333,1.492,3.333,3.333V84.4z"></path><path d="M26.667,25.6c2.762,0,5-2.239,5-5v-10c0-2.762-2.238-5-5-5c-2.761,0-5,2.238-5,5v10C21.667,23.361,23.905,25.6,26.667,25.6z  "></path><path d="M50,25.6c2.762,0,5-2.239,5-5v-10c0-2.762-2.238-5-5-5c-2.761,0-5,2.238-5,5v10C45,23.361,47.239,25.6,50,25.6z"></path><path d="M73.333,25.6c2.762,0,5-2.239,5-5v-10c0-2.762-2.238-5-5-5c-2.761,0-5,2.238-5,5v10C68.333,23.361,70.572,25.6,73.333,25.6z  "></path></svg>