<svg xmlns="http://www.w3.org/2000/svg" width="62" height="62" viewBox="0 0 62 62">
  <g id="total_bookings" transform="translate(-768 -192)">
    <circle id="_1" data-name="1" cx="31" cy="31" r="31" transform="translate(768 192)" fill="#f2f1f6"/>
    <g id="_2636428" data-name="2636428" transform="translate(785 193.5)">
      <path id="Path_105264" data-name="Path 105264" d="M22.976,15.5H5.948a5.948,5.948,0,1,0,0,11.9h4.331V32.2l-.211-.177a2.753,2.753,0,0,0-3.646.159,2.378,2.378,0,0,0,.155,3.541l3.7,3.107v2.994a.847.847,0,0,0,.847.847H21.295a.847.847,0,0,0,.847-.847V32.3a2.546,2.546,0,0,0-2.228-2.523l-4.551-.567V27.4h7.613a5.948,5.948,0,0,0,0-11.9Zm-11,25.478V39.283h8.474v1.695ZM19.7,31.462a.849.849,0,0,1,.743.841v5.285H11.434L7.665,34.426a.686.686,0,0,1-.046-1.044,1.053,1.053,0,0,1,1.358-.059l1.6,1.345a.848.848,0,0,0,1.392-.649V23.183a.847.847,0,1,1,1.695,0v6.779a.847.847,0,0,0,.743.841ZM22.976,25.7H15.363V23.183a2.542,2.542,0,0,0-5.084,0V25.7H5.948a4.253,4.253,0,1,1,0-8.506H22.976a4.253,4.253,0,0,1,0,8.506Z" fill="#2b78c8"/>
      <path id="Path_105265" data-name="Path 105265" d="M306.232,75.748l-2.79,2.79-1.1-1.1a.847.847,0,1,0-1.2,1.2l1.695,1.695a.847.847,0,0,0,1.2,0l3.389-3.389a.847.847,0,0,0-1.2-1.2Z" transform="translate(-283.901 -56.61)" fill="#2b78c8"/>
    </g>
  </g>
</svg>
