<svg xmlns="http://www.w3.org/2000/svg" width="62" height="62" viewBox="0 0 62 62">
  <g id="total_revenue" transform="translate(-768 -192)">
    <circle id="_1" data-name="1" cx="31" cy="31" r="31" transform="translate(768 192)" fill="#f2f1f6"/>
    <g id="_633606" data-name="633606" transform="translate(786 210)">
      <g id="Group_59409" data-name="Group 59409" transform="translate(0 25.544)">
        <g id="Group_59408" data-name="Group 59408">
          <path id="Path_105281" data-name="Path 105281" d="M26.1,490.667H.555a.555.555,0,1,0,0,1.111H26.1a.555.555,0,1,0,0-1.111Z" transform="translate(0 -490.667)" fill="#2b78c8"/>
        </g>
      </g>
      <g id="Group_59411" data-name="Group 59411" transform="translate(1.111 18.881)">
        <g id="Group_59410" data-name="Group 59410">
          <path id="Path_105282" data-name="Path 105282" d="M25.22,362.667H21.888a.556.556,0,0,0-.555.555v6.664a.556.556,0,0,0,.555.555H25.22a.556.556,0,0,0,.555-.555v-6.664A.555.555,0,0,0,25.22,362.667Zm-.555,6.664H22.444v-5.553h2.221v5.553Z" transform="translate(-21.333 -362.667)" fill="#2b78c8"/>
        </g>
      </g>
      <g id="Group_59413" data-name="Group 59413" transform="translate(7.774 13.327)">
        <g id="Group_59412" data-name="Group 59412">
          <path id="Path_105283" data-name="Path 105283" d="M153.22,256h-3.332a.556.556,0,0,0-.555.555v12.217a.556.556,0,0,0,.555.555h3.332a.556.556,0,0,0,.555-.555V256.555A.556.556,0,0,0,153.22,256Zm-.555,12.217h-2.221V257.111h2.221Z" transform="translate(-149.333 -256)" fill="#2b78c8"/>
        </g>
      </g>
      <g id="Group_59415" data-name="Group 59415" transform="translate(14.438 15.549)">
        <g id="Group_59414" data-name="Group 59414">
          <path id="Path_105284" data-name="Path 105284" d="M281.22,298.667h-3.332a.556.556,0,0,0-.555.555v10a.556.556,0,0,0,.555.555h3.332a.556.556,0,0,0,.555-.555v-10A.556.556,0,0,0,281.22,298.667Zm-.555,10h-2.221v-8.885h2.221Z" transform="translate(-277.333 -298.667)" fill="#2b78c8"/>
        </g>
      </g>
      <g id="Group_59417" data-name="Group 59417" transform="translate(21.102 8.885)">
        <g id="Group_59416" data-name="Group 59416">
          <path id="Path_105285" data-name="Path 105285" d="M409.22,170.667h-3.332a.556.556,0,0,0-.555.555v16.659a.556.556,0,0,0,.555.555h3.332a.556.556,0,0,0,.555-.555V171.222A.556.556,0,0,0,409.22,170.667Zm-.555,16.659h-2.221V171.778h2.221Z" transform="translate(-405.333 -170.667)" fill="#2b78c8"/>
        </g>
      </g>
      <g id="Group_59419" data-name="Group 59419" transform="translate(1.111 9.996)">
        <g id="Group_59418" data-name="Group 59418">
          <path id="Path_105286" data-name="Path 105286" d="M23.554,192a2.221,2.221,0,1,0,2.221,2.221A2.223,2.223,0,0,0,23.554,192Zm0,3.332a1.111,1.111,0,1,1,1.111-1.111A1.112,1.112,0,0,1,23.554,195.332Z" transform="translate(-21.333 -192)" fill="#2b78c8"/>
        </g>
      </g>
      <g id="Group_59421" data-name="Group 59421" transform="translate(7.774 4.442)">
        <g id="Group_59420" data-name="Group 59420">
          <path id="Path_105287" data-name="Path 105287" d="M151.554,85.333a2.221,2.221,0,1,0,2.221,2.221A2.223,2.223,0,0,0,151.554,85.333Zm0,3.332a1.111,1.111,0,1,1,1.111-1.111A1.112,1.112,0,0,1,151.554,88.665Z" transform="translate(-149.333 -85.333)" fill="#2b78c8"/>
        </g>
      </g>
      <g id="Group_59423" data-name="Group 59423" transform="translate(14.438 6.664)">
        <g id="Group_59422" data-name="Group 59422">
          <path id="Path_105288" data-name="Path 105288" d="M279.554,128a2.221,2.221,0,1,0,2.221,2.221A2.223,2.223,0,0,0,279.554,128Zm0,3.332a1.111,1.111,0,1,1,1.111-1.111A1.112,1.112,0,0,1,279.554,131.332Z" transform="translate(-277.333 -128)" fill="#2b78c8"/>
        </g>
      </g>
      <g id="Group_59425" data-name="Group 59425" transform="translate(21.102)">
        <g id="Group_59424" data-name="Group 59424">
          <path id="Path_105289" data-name="Path 105289" d="M407.554,0a2.221,2.221,0,1,0,2.221,2.221A2.223,2.223,0,0,0,407.554,0Zm0,3.332a1.111,1.111,0,1,1,1.111-1.111A1.112,1.112,0,0,1,407.554,3.332Z" transform="translate(-405.333)" fill="#2b78c8"/>
        </g>
      </g>
      <g id="Group_59427" data-name="Group 59427" transform="translate(17.282 2.843)">
        <g id="Group_59426" data-name="Group 59426">
          <path id="Path_105290" data-name="Path 105290" d="M337.22,54.77a.556.556,0,0,0-.785,0l-4.309,4.309a.555.555,0,0,0,.785.785l4.309-4.309A.556.556,0,0,0,337.22,54.77Z" transform="translate(-331.963 -54.608)" fill="#2b78c8"/>
        </g>
      </g>
      <g id="Group_59429" data-name="Group 59429" transform="translate(11.042 6.564)">
        <g id="Group_59428" data-name="Group 59428">
          <path id="Path_105291" data-name="Path 105291" d="M216.382,127.118l-3.567-1.017a.555.555,0,0,0-.3,1.068l3.567,1.017a.555.555,0,0,0,.3-1.068Z" transform="translate(-212.108 -126.078)" fill="#2b78c8"/>
        </g>
      </g>
      <g id="Group_59431" data-name="Group 59431" transform="translate(3.953 7.147)">
        <g id="Group_59430" data-name="Group 59430">
          <path id="Path_105292" data-name="Path 105292" d="M81.111,137.482a.556.556,0,0,0-.78-.089l-4.187,3.339a.555.555,0,0,0,.347.99.561.561,0,0,0,.345-.12l4.187-3.339A.555.555,0,0,0,81.111,137.482Z" transform="translate(-75.935 -137.273)" fill="#2b78c8"/>
        </g>
      </g>
    </g>
  </g>
</svg>
