<svg xmlns="http://www.w3.org/2000/svg" width="62" height="62" viewBox="0 0 62 62">
  <g id="total_audio" transform="translate(-683 -847)">
    <g id="Group_58562" data-name="Group 58562" transform="translate(-85 655)">
      <circle id="_1" data-name="1" cx="31" cy="31" r="31" transform="translate(768 192)" fill="#f2f1f6"/>
    </g>
    <g id="phone_5_" data-name="phone (5)" transform="translate(701.174 864.83)">
      <path id="Path_104998" data-name="Path 104998" d="M22.253,17.982c-1.561-1.335-3.145-2.143-4.686-.811l-.921.806c-.673.585-1.926,3.317-6.767-2.252S7.919,9.3,8.594,8.716l.926-.807c1.533-1.336.955-3.018-.151-4.749L8.7,2.112C7.59.385,6.38-.749,4.842.585l-.831.726A7.8,7.8,0,0,0,.972,6.472c-.555,3.668,1.195,7.868,5.2,12.477s7.922,6.926,11.634,6.886a7.819,7.819,0,0,0,5.531-2.291l.834-.727c1.533-1.333.581-2.69-.981-4.028Z" transform="translate(0)" fill="#2b78c8"/>
    </g>
  </g>
</svg>
