<svg id="twitter" xmlns="http://www.w3.org/2000/svg" width="51.529" height="52.539" viewBox="0 0 51.529 52.539">
  <rect id="Rectangle_2200" data-name="Rectangle 2200" width="51.529" height="52.539" rx="11" fill="#50abf1"/>
  <path id="Path_44075" data-name="Path 44075" d="M60.36,123.617A22.377,22.377,0,0,0,94.7,104.705q0-.463-.018-.92c.447-.352,3.211-2.567,3.889-3.992a18.148,18.148,0,0,1-4.442,1.153h-.014l.012-.008c.2-.135,3.033-2.062,3.416-4.358a27.257,27.257,0,0,1-3.811,1.589c-.368.122-.753.242-1.151.354A7.851,7.851,0,0,0,79.2,105.666,23.643,23.643,0,0,1,63.083,97.52s-3.753,5.123,2.236,10.391a8.067,8.067,0,0,1-3.391-1.011,7.461,7.461,0,0,0,6.205,7.793,7.184,7.184,0,0,1-3.464.145,7.739,7.739,0,0,0,7.216,5.483,15.08,15.08,0,0,1-11.528,3.294Z" transform="translate(-53.623 -84.22)" fill="#fff"/>
</svg>
