<svg height='300px' width='300px'  fill="#FFFFFF" xmlns="http://www.w3.org/2000/svg" xmlns:xlink="http://www.w3.org/1999/xlink" version="1.1" x="0px" y="0px" viewBox="0 0 100 100" style="enable-background:new 0 0 100 100;" xml:space="preserve"><g><ellipse transform="matrix(0.9732488 -0.2297535 0.2297535 0.9732488 -4.6000862 12.1790209)" cx="50" cy="25.8435364" rx="19.2746239" ry="19.2746925"></ellipse><path d="M74.1837463,47.6320801c-1.4159546-0.8648071-3.0491333-1.296875-4.7064819-1.3320312   c-2.416626-0.0512085-4.7433472,0.9563599-6.529541,2.5848999c-3.5632935,3.2487793-6.4158936,5.5033569-12.9476929,5.5033569   c-6.5349121,0-9.4993896-2.3184204-12.8956299-5.4764404c-1.5609131-1.4515381-3.539856-2.4508057-5.666748-2.5912476   c-1.9647217-0.1296997-3.9453125,0.2875977-5.6213379,1.3114624c-5.0441284,3.0804443-15.2316895,12.5601807-15.2316895,38.8806763   c0,1.0379028,0.0161743,2.0392456,0.0450439,3.0115967c0.0646362,2.1806641,1.866394,3.9067993,4.0479736,3.9067993h16.0476685   h11.4761963H57.219574h11.081665h17.0209961c2.1815186,0,3.9832153-1.7260132,4.0480347-3.9065552   c0.0288696-0.9724731,0.045105-1.973877,0.045105-3.0118408C89.4153748,60.1922607,79.2276917,50.7125244,74.1837463,47.6320801z    M72.4248352,76.5543823H67.566864v4.8579712h-6.2459717v-4.8579712h-4.8580322v-6.2459717h4.8580322v-4.8580322h6.2459717   v4.8580322h4.8579712V76.5543823z"></path></g></svg>