<svg xmlns="http://www.w3.org/2000/svg" width="46.037" height="49.318" viewBox="0 0 46.037 49.318">
  <g id="h_logo" transform="translate(-77.658 0)">
    <g id="Layer_1" data-name="Layer 1" transform="translate(-0.003 0)">
      <rect id="Rectangle_17538" data-name="Rectangle 17538" width="3.377" height="29.845" transform="translate(87.722 3.377) rotate(-90)" fill="#fff"/>
      <rect id="Rectangle_17539" data-name="Rectangle 17539" width="0.006" height="20.15" transform="translate(117.566 25.717)" fill="#fff"/>
      <path id="Path_104818" data-name="Path 104818" d="M169.3,32.38a.233.233,0,0,0,0,.466h.921c-.108-.154-.2-.313-.3-.466Z" transform="translate(-72.939 -13.97)" fill="#fff"/>
      <path id="Path_104819" data-name="Path 104819" d="M175.335,25.058a.233.233,0,0,1,.239-.159.227.227,0,0,1,.21.182l1.063,4.549,1.706-3.98a.222.222,0,0,1,.216-.142h0a.233.233,0,0,1,.216.142l.654,1.632.6-1.421a.233.233,0,0,1,.193-.142.216.216,0,0,1,.216.1l.705,1.075h.472a4.6,4.6,0,0,0,.2-.569c.859-3.32-3.008-6.186-6.362-2.843-3.355-3.355-7.215-.489-6.357,2.843a5.72,5.72,0,0,0,.7,1.547h4.4Z" transform="translate(-72.989 -9.485)" fill="#fff"/>
      <path id="Path_104820" data-name="Path 104820" d="M181.85,30.313l-.569-.813-.66,1.535a.233.233,0,0,1-.432,0l-.614-1.626-1.763,4.139a.233.233,0,0,1-.216.142h0a.239.239,0,0,1-.21-.182L176.335,29l-.739,2.229a.239.239,0,0,1-.222.159H171.11a24.059,24.059,0,0,0,5.356,4.975s4.406-2.945,5.942-5.947h-.381A.245.245,0,0,1,181.85,30.313Z" transform="translate(-73.819 -12.511)" fill="#fff"/>
      <path id="Path_104821" data-name="Path 104821" d="M146.635,62.475a15.352,15.352,0,0,1-3.736-.569,9.211,9.211,0,0,1-1.365-.517,8.529,8.529,0,0,1-4.236-4.446,9.586,9.586,0,0,1-.688-2.934,10.307,10.307,0,0,1,0-1.45,12.825,12.825,0,0,1,.125-1.387,12.037,12.037,0,0,1,.705-2.763,9.917,9.917,0,0,1,1.427-2.542,10.235,10.235,0,0,1,2.041-2.013,13.419,13.419,0,0,1,2.365-1.438,19.552,19.552,0,0,1,3.372-1.239h0c.569-.154,1.1-.284,1.649-.392q2.405-.478,4.782-.751l.324-.04c1.626-.2,3.252-.353,4.878-.5q4.975-.432,9.944-.682.762-.034,1.518-.1c1.137-.1,2.229-.239,3.338-.409a31,31,0,0,0,3.411-.733c.432-.125.859-.256,1.274-.409a10.678,10.678,0,0,0,2.115-1.018,4.133,4.133,0,0,0,1.5-1.558,2.616,2.616,0,0,0,.239-1.006,1.773,1.773,0,0,0,0-.483,1.04,1.04,0,0,0-.188-.392,3.593,3.593,0,0,0-1.882-1.04,12.6,12.6,0,0,0-2.371-.4l-.665-.04c-.569,0-1.2,0-1.8-.04l-3.275-.08h-3.917c.08-.154.159-.313.222-.466h3.633l3.338-.08c.569,0,1.188-.034,1.8-.04h.711a13.374,13.374,0,0,1,2.536.335,4.338,4.338,0,0,1,2.405,1.279,1.961,1.961,0,0,1,.375.705,2.639,2.639,0,0,1,.08.751,3.446,3.446,0,0,1-.284,1.4,5.117,5.117,0,0,1-1.814,2.058,12.31,12.31,0,0,1-2.3,1.228c-.569.227-1.137.432-1.706.608h0a31.356,31.356,0,0,1-3.161.8c-1.08.21-2.172.392-3.264.534l-.33.045q-.7.085-1.4.154c-3.281.324-6.567.705-9.831,1.137-1.706.244-3.411.495-5.117.79l-.324.057-6.431,1.547h0a10.975,10.975,0,0,0-5.322,3.707,6.482,6.482,0,0,0-.9,1.819,8.421,8.421,0,0,0-.415,2.058,7.494,7.494,0,0,0,.534,3.98,4.873,4.873,0,0,0,2.524,2.462,6.7,6.7,0,0,0,3.548.313Z" transform="translate(-58.924 -13.163)" fill="#fff"/>
      <path id="Path_104822" data-name="Path 104822" d="M180.214,25.605c.08-.154.159-.313.222-.466h2.053v-3.98a6.641,6.641,0,0,1,.881-3.309H166V34.515h.068c1.626-.2,3.252-.353,4.878-.5q4.975-.432,9.944-.682.762-.034,1.518-.1h.08V25.605Z" transform="translate(-71.615 -7.701)" fill="none"/>
      <path id="Path_104823" data-name="Path 104823" d="M180.354,47.816c-3.281.324-6.567.705-9.831,1.137-1.706.244-3.411.495-5.117.79h-.068v13.47a6.648,6.648,0,0,1-.9,3.338H167.1V51.632h12.964V66.443h1.757V47.68h-.068Z" transform="translate(-70.941 -20.57)" fill="none"/>
      <path id="Path_104824" data-name="Path 104824" d="M206.78,38.051c.432-.125.859-.256,1.274-.409a10.676,10.676,0,0,0,2.115-1.018,4.134,4.134,0,0,0,1.5-1.558,2.615,2.615,0,0,0,.239-1.006,1.773,1.773,0,0,0,0-.483,1.041,1.041,0,0,0-.188-.392,3.594,3.594,0,0,0-1.882-1.04,12.6,12.6,0,0,0-2.371-.4l-.665-.04h0v6.351Z" transform="translate(-89.208 -13.676)" fill="none"/>
      <path id="Path_104825" data-name="Path 104825" d="M143.845,57.847a6.482,6.482,0,0,0-.9,1.819,8.42,8.42,0,0,0-.415,2.058,7.494,7.494,0,0,0,.534,3.98,4.873,4.873,0,0,0,2.547,2.456,6.675,6.675,0,0,0,3.542.313V54.14A11.141,11.141,0,0,0,143.845,57.847Z" transform="translate(-61.457 -23.357)" fill="none"/>
      <path id="Path_104826" data-name="Path 104826" d="M180.7,53.459V30.846h0a31.358,31.358,0,0,1-3.161.8c-1.08.21-2.172.392-3.264.534l-.262.04V50.98h-1.757V36.191H159.3v14.9h-2.655a6.647,6.647,0,0,0,.876-3.32v-32.5h17.359a6.641,6.641,0,0,0-.87,3.309V30.642c1.1-.1,2.183-.233,3.269-.4a31,31,0,0,0,3.411-.733V12.879h4.5V11.89H146.34v.989h4.5V50.246h0v4.2H162.67V39.574h6.22V54.448h16.318v-.989Z" transform="translate(-63.133 -5.13)" fill="#fff"/>
    </g>
  </g>
</svg>
