<svg id="white_share" xmlns="http://www.w3.org/2000/svg" width="16.826" height="16.826" viewBox="0 0 16.826 16.826">
  <path id="Path_61997" data-name="Path 61997" d="M0,0H16.826V16.826H0Z" fill="none"/>
  <path id="Path_61998" data-name="Path 61998" d="M13.516,11.871a2.042,2.042,0,0,0-1.374.54l-5-2.909a2.3,2.3,0,0,0,.063-.491,2.3,2.3,0,0,0-.063-.491l4.943-2.881A2.1,2.1,0,1,0,11.413,4.1a2.3,2.3,0,0,0,.063.491L6.533,7.475a2.1,2.1,0,1,0,0,3.071l4.992,2.916a1.978,1.978,0,0,0-.056.456,2.047,2.047,0,1,0,2.047-2.047Z" transform="translate(-0.897 -0.598)" fill="#fff"/>
</svg>
