<?xml version="1.0" encoding="UTF-8"?>
<svg width="752pt" height="752pt" version="1.1" viewBox="0 0 752 752" xmlns="http://www.w3.org/2000/svg">
 <path d="m376 162.89c-116.97 0-212.16 95.188-213.11 211.69-0.47266 56.828 21.312 110.82 61.566 151.07 39.781 40.727 93.297 62.984 150.12 63.461h1.4219c116.97 0 212.16-95.191 213.11-211.69 0.94141-117.45-94.246-213.59-213.12-214.54zm103.24 284.15-9.4727 9.4727c-15.629 15.629-28.887 19.418-49.727 13.262-21.785-6.6289-41.203-18.469-58.723-32.676-25.102-20.363-52.094-46.883-69.617-74.352-17.523-28.414-23.207-58.25 1.4219-82.875l9.4688-9.4688c6.6289-6.6289 17.523-6.6289 24.625 0l27.941 27.941c6.6289 6.6289 6.6289 17.523 0 24.625l-16.574 16.574 0.47266 0.47266c18.469 27.941 42.621 52.094 70.562 70.562l0.47266 0.47266 16.574-16.574c6.6289-6.6289 17.523-6.6289 24.625 0l27.941 27.941c7.1133 7.0977 7.1133 17.992 0.007813 24.621z" fill="#ccd6e3"/>
</svg>
